<svg width="119" height="116" viewBox="0 0 119 116" fill="none" xmlns="http://www.w3.org/2000/svg">
<mask id="mask0_28_277" style="mask-type:luminance" maskUnits="userSpaceOnUse" x="8" y="6" width="103" height="104">
<path d="M59.4981 109.085C87.6765 109.085 110.52 86.2133 110.52 58C110.52 29.7868 87.6765 6.91541 59.4981 6.91541C31.3197 6.91541 8.47656 29.7868 8.47656 58C8.47656 86.2133 31.3197 109.085 59.4981 109.085Z" fill="white"/>
</mask>
<g mask="url(#mask0_28_277)">
<path d="M109.458 82.2827L4.76221 67.4386L-0.00711051 101.16L104.688 116.004L109.458 82.2827Z" fill="#F7B457"/>
<path d="M114.23 48.5647L9.53467 33.7206L4.76535 67.4417L109.461 82.2859L114.23 48.5647Z" fill="#FF4F4F"/>
<path d="M118.996 14.8461L14.3008 0.00195312L9.53146 33.7231L114.227 48.5673L118.996 14.8461Z" fill="#2B244A"/>
</g>
</svg>
