<svg width="91" height="77" viewBox="0 0 91 77" fill="none" xmlns="http://www.w3.org/2000/svg">
<path d="M36.6118 75.1451C35.6167 73.4356 34.6443 71.8161 33.5814 69.9717C29.6012 71.8386 25.7567 73.728 21.8669 75.4825C15.3086 78.4516 9.33827 76.8096 3.88809 72.7608C0.767235 70.444 -0.340893 67.1825 0.0887889 63.3137C0.812465 56.5433 3.68455 50.8075 8.38844 45.9715C10.8761 43.4072 13.4316 40.888 16.2358 38.6837C28.1765 29.2591 40.4337 20.2168 53.4146 12.2542C59.6563 8.4304 66.079 4.94396 72.4111 1.30007C73.18 0.850207 73.9942 0.44533 74.8309 0.130426C75.5998 -0.184478 76.2783 0.0854395 76.7532 0.782727C77.1376 1.32256 77.0924 1.88489 76.7984 2.44722C76.7306 2.58218 76.6627 2.71714 76.5496 2.8296C73.7906 5.66374 72.7277 9.19517 74.3786 12.6366C76.4818 17.0453 79.3313 21.1615 84.0352 23.4108C85.2564 23.9957 86.6585 23.9957 87.9249 23.2534C88.7164 22.781 89.5532 22.4661 90.5256 23.1409C91.3624 24.0406 90.9779 24.9854 90.2543 25.8176C89.8698 26.2675 89.3723 26.6274 88.8974 26.9648C79.9193 32.903 71.9588 40.1457 63.2973 46.4888C57.915 50.4476 52.8267 54.8113 47.6479 58.95C47.6026 61.0644 49.0274 62.414 49.5475 64.0785C50.4521 67.0476 49.9093 68.5321 47.1277 68.2172C42.7178 67.6999 40.5468 69.8367 39.009 73.3456C38.6245 74.2004 38.127 74.8977 36.6344 75.1451H36.6118ZM75.939 20.6892C73.1122 21.4764 71.1899 22.916 69.1998 24.2206C61.1715 29.4165 53.1433 34.6124 45.2054 39.9433C37.3807 45.1842 29.6916 50.6051 21.9121 55.8685C20.6683 56.7232 19.4697 58.0503 16.8916 57.353C35.6846 43.2498 55.2917 31.3509 74.3334 18.6873C73.8132 16.8878 73.2027 15.6282 71.8005 15.0659C65.197 19.4071 58.7291 23.6583 52.2613 27.9095C45.6351 32.2506 39.0994 36.7268 32.3828 40.9105C25.9376 44.9368 20.7135 50.8075 13.0019 54.024C13.4768 51.2574 15.0598 50.2002 16.6203 49.098C27.6337 41.3829 38.6698 33.7352 50.0903 26.6274C56.4224 22.6686 62.5737 18.4174 68.8832 14.4361C71.1673 12.9965 71.6648 11.242 70.715 8.7678C69.0641 9.03771 68.0012 10.1174 66.78 10.8822C62.4606 13.5813 58.3673 16.6179 53.8669 18.9797C42.4012 24.9629 32.4733 33.1279 22.0931 40.6631C17.9771 43.6547 14.1552 46.9612 10.5821 50.5601C9.11212 52.0446 7.66477 53.5067 7.18986 55.756C11.7807 57.3305 14.5623 61.1543 17.9771 64.0335C29.7821 55.1712 41.7001 46.8937 53.8896 38.9761C53.098 42.0802 50.1581 42.8224 48.0549 44.4419C45.7256 46.2414 43.238 47.8384 41.0669 50.1102C42.3786 51.8197 43.057 53.6641 45.0245 54.7888C57.4175 45.2967 69.2677 35.1523 82.4521 25.9976C79.7836 24.513 77.7935 22.7585 75.8938 20.7117L75.939 20.6892ZM15.987 72.221C15.6704 65.1806 12.0747 60.5245 5.51636 58.5226C4.06901 61.7842 2.73473 65.1806 5.10929 68.4646C7.66477 71.996 11.3962 73.0532 15.987 72.221ZM19.6506 71.3213C23.563 69.2294 27.6337 67.8798 30.7545 64.9107C29.9178 62.7514 28.9227 61.2218 26.9779 60.5245C24.8747 61.8966 22.862 63.1337 20.9623 64.5058C18.3842 66.3728 17.4344 67.34 19.6506 71.2988V71.3213Z" fill="#414141"/>
<path d="M72.8634 28.5168C72.1548 30.2713 70.5416 31.7183 68.0238 32.858C68.7701 30.0013 71.2125 29.7314 72.8634 28.5168Z" fill="#414141"/>
</svg>
