<svg width="120" height="117" viewBox="0 0 120 117" fill="none" xmlns="http://www.w3.org/2000/svg">
<path d="M106.956 20.5788C101.02 23.7624 92.6799 24.3656 85.9578 24.4419C74.4975 24.5717 62.9608 25.2894 51.6302 27.4882C40.2995 29.687 29.1444 33.3975 19.2558 39.1999C15.7842 41.2307 12.3735 43.628 10.3897 46.9262L10.1684 47.14C8.08543 38.9708 6.00242 30.6184 4.02624 21.785C11.8242 13.9213 24.2612 11.6461 35.5384 11.8981C46.8156 12.15 76.1074 14.8756 101.432 3.24026C103.026 9.69162 104.361 14.7916 106.086 21.2048" fill="#282B26"/>
<path d="M17.9282 70.7161C19.9578 67.5935 23.399 65.2878 26.8859 63.3257C36.8279 57.7218 47.9906 54.0495 59.306 51.7972C70.6214 49.545 82.1123 48.667 93.5268 48.3539C100.226 48.1707 107.314 48.0715 113.281 44.987L113.762 44.9183C115.303 50.1557 116.89 55.3703 118.538 60.5772C106.864 65.7688 93.5421 64.3716 80.8457 65.2496C60.4124 66.6621 36.9347 75.3733 21.3083 87.8714C20.0799 82.1682 18.7523 76.6101 17.3865 71.0749" fill="#EBD256"/>
<path d="M16.6082 68.2882C14.8686 61.3177 13.0602 54.393 11.2519 47.3233L11.5571 47.453C13.5257 44.1014 16.9287 41.6812 20.3927 39.6274C30.266 33.7716 41.4135 30.0458 52.7518 27.8623C64.09 25.6788 75.6343 25.0145 87.1176 24.9458C93.8549 24.9077 101.836 26.8011 107.772 23.5868L108.322 25.6559C110.191 32.6187 110.9 35.0008 112.861 41.6812L112.404 41.811C106.589 45.4604 99.3714 45.0786 92.6341 45.1168C81.1509 45.1855 69.6218 45.9185 58.2836 48.0944C46.9453 50.2779 35.8054 54.0342 25.9321 59.89C22.4681 61.9438 19.0651 64.3869 17.0965 67.7309" fill="#C8514C"/>
<path d="M4.18647 19.8306C4.85792 19.0442 5.64381 18.2273 6.43734 17.5096C7.24612 16.7919 8.10069 16.1124 8.97815 15.4788C10.756 14.2267 12.6864 13.2112 14.6778 12.3638C16.6769 11.5316 18.7446 10.8674 20.8505 10.394C22.9564 9.92066 25.0852 9.59237 27.2216 9.38623C29.358 9.18773 31.5097 9.08847 33.6538 9.14955C35.8054 9.18773 37.9113 9.36333 40.0172 9.47785C44.2214 9.70689 48.4179 9.9512 52.6221 9.98174C54.7203 10.0046 56.8262 9.99701 58.9245 9.93593C61.0228 9.87485 63.121 9.7985 65.2193 9.62291C67.3099 9.46258 69.4006 9.25644 71.4836 8.98922C73.5666 8.74491 75.642 8.40898 77.7021 8.01198C79.7546 7.58443 81.7994 7.08817 83.8138 6.51557C85.8357 5.96587 87.8195 5.30164 89.8034 4.66032C90.7876 4.30913 91.7872 4.01901 92.7638 3.6449C93.7481 3.30134 94.7324 2.95014 95.7014 2.56841C97.6547 1.82784 99.5546 0.980379 101.439 0.102384H101.454C101.989 -0.149562 102.622 0.07948 102.874 0.613912C102.904 0.67499 102.927 0.743702 102.942 0.80478L106.849 16.4331C108.177 21.6324 109.527 26.8316 110.923 32.0156C112.343 37.192 113.792 42.3683 115.295 47.5218C116.814 52.6752 118.37 57.8134 119.965 62.9439C120.079 63.3028 119.904 63.6921 119.576 63.8525C115.593 65.7841 111.244 66.8377 106.902 67.3492C102.553 67.8531 98.1888 67.876 93.8702 67.8225C89.5516 67.7691 85.2406 67.6011 80.9906 67.7691C78.8161 67.8378 76.7407 68.0287 74.6043 68.2653C72.4831 68.502 70.3696 68.8074 68.2637 69.1968C59.863 70.7695 51.6225 73.3348 43.8399 76.9537C39.9486 78.7478 36.1869 80.8398 32.5932 83.176C30.8001 84.3441 29.0299 85.5657 27.3513 86.8941C25.6651 88.2149 24.0246 89.5968 22.4605 91.0474C22.2163 91.2765 21.8272 91.2612 21.5983 91.0092C21.522 90.9329 21.4762 90.8336 21.4533 90.7344C20.7666 87.7874 20.0799 84.848 19.3398 81.9239L17.0736 73.1592L12.3735 55.668C10.8475 49.8274 9.25283 43.9945 7.82601 38.1234C7.10878 35.1917 6.42971 32.2446 5.79641 29.2824C5.49121 27.8012 5.14786 26.3277 4.86555 24.8466C4.58323 23.3578 4.28566 21.8767 4.03387 20.3879C3.97283 20.052 4.20173 19.7313 4.53745 19.6779C4.85029 19.6244 5.14786 19.8153 5.23179 20.113C5.65907 21.5636 6.0482 23.0219 6.44497 24.4801C6.85699 25.9307 7.22323 27.3966 7.61237 28.8548C7.99387 30.3131 8.40589 31.7637 8.77214 33.2295L9.90138 37.6119L14.3268 55.1718L16.4861 63.967L18.5996 72.7775L20.6369 81.6109L22.6207 90.4595L21.6135 90.1465C24.8487 87.2377 28.328 84.6113 31.9522 82.2216C33.7682 81.0306 35.6147 79.8931 37.5146 78.8395C39.4144 77.7859 41.322 76.7628 43.2829 75.8161C47.1895 73.9151 51.2105 72.266 55.3231 70.8612C59.4357 69.464 63.6475 68.3112 67.9203 67.4942C70.0568 67.0743 72.2084 66.7308 74.3754 66.4712C76.5194 66.2116 78.7474 66.036 80.8914 65.9673C83.0889 65.8833 85.2482 65.8986 87.4151 65.9215L93.8854 66.0589C98.1888 66.1582 102.469 66.1734 106.704 65.7306C110.923 65.2802 115.089 64.3105 118.904 62.5088L118.508 63.4173C116.928 58.2791 115.379 53.1257 113.869 47.9646L111.587 40.2306L109.352 32.4813C107.856 27.3126 106.391 22.1439 104.972 16.9523L102.866 9.16482C102.164 6.56901 101.515 3.95793 100.852 1.35448L102.355 2.05688C100.417 2.96541 98.4711 3.85104 96.472 4.61452C94.4882 5.41616 92.4662 6.09566 90.4214 6.70644C88.3689 7.30194 86.2935 7.79057 84.2105 8.21811C82.1275 8.66856 80.0292 8.98922 77.9386 9.36333C75.8403 9.69162 73.7497 10.0505 71.6438 10.3253C69.5455 10.6078 67.432 10.8368 65.3185 11.0201C61.0914 11.3865 56.8568 11.6232 52.6144 11.6843C48.3721 11.7454 44.1298 11.6843 39.9028 11.4629C37.7892 11.3713 35.6833 11.2186 33.6156 11.2033C31.5402 11.188 29.4649 11.2338 27.3971 11.4094C25.3294 11.585 23.2845 11.8828 21.2625 12.3103C19.2482 12.7608 17.2568 13.3105 15.3416 14.0511C13.4188 14.784 11.5876 15.7231 9.84797 16.8148C8.98578 17.3722 8.1541 17.9677 7.35294 18.6166C6.55942 19.2809 5.82693 19.9451 5.07156 20.7085C4.83503 20.9529 4.44589 20.9529 4.20173 20.7162C3.97283 20.4871 3.95757 20.1207 4.16358 19.8764L4.17884 19.8611L4.18647 19.8306Z" fill="#40433E"/>
<path d="M113.441 45.1015C113.441 45.1015 113.09 45.2924 112.442 45.6512C112.106 45.8268 111.656 46.0253 111.145 46.2697C110.626 46.4682 110.038 46.7277 109.344 46.9339C107.978 47.3843 106.284 47.7813 104.323 48.0486C102.362 48.3234 100.134 48.4608 97.731 48.4761C95.3428 48.4761 92.7562 48.4761 90.0246 48.4761C87.3007 48.4837 84.4318 48.5601 81.4713 48.6593C75.5428 48.8731 69.2327 49.3694 62.999 50.3466C61.4424 50.5986 59.8783 50.8429 58.3446 51.1406C56.7728 51.4384 55.2697 51.7438 53.759 52.1026C50.7374 52.805 47.7999 53.6219 44.992 54.5381C39.3839 56.3781 34.3252 58.5769 30.1897 60.852C28.122 61.982 26.2526 63.0966 24.6884 64.1579C23.1243 65.2267 21.8653 66.2803 20.9268 67.2347C19.9883 68.189 19.355 69.0212 18.9659 69.6167C18.7599 69.9068 18.6302 70.1435 18.531 70.3038C18.4394 70.4641 18.386 70.5405 18.386 70.5405L18.3631 70.571C18.1724 70.8917 17.7527 70.9986 17.4323 70.8077C17.1194 70.6168 17.0126 70.2198 17.1805 69.8992C17.1805 69.8992 17.2339 69.8076 17.3254 69.632C17.4246 69.4564 17.562 69.1891 17.768 68.8609C18.1724 68.1966 18.8286 67.2423 19.8128 66.1811C20.7971 65.1198 22.1095 63.9517 23.7118 62.7912C25.3217 61.6231 27.1835 60.4397 29.2817 59.2487C33.4783 56.8667 38.598 54.4541 44.3282 52.5607C47.1895 51.6063 50.1805 50.7513 53.263 50.026C54.7966 49.6518 56.3837 49.3236 57.925 49.0182C59.5044 48.7128 61.0762 48.4379 62.6632 48.2013C69.0114 47.2545 75.4054 46.8041 81.395 46.6285C84.3936 46.5292 87.2854 46.5445 90.0322 46.5827C92.7638 46.6361 95.3428 46.6896 97.7234 46.7354C100.089 46.7507 102.24 46.6972 104.125 46.4911C106.01 46.2926 107.627 45.9643 108.917 45.5825C109.573 45.4069 110.13 45.1855 110.626 45.0176C111.099 44.8191 111.503 44.6664 111.831 44.506C112.503 44.1777 112.854 43.9945 112.854 43.9945C113.159 43.8418 113.533 43.964 113.693 44.277C113.846 44.5748 113.724 44.9412 113.434 45.1015H113.441Z" fill="#40433E"/>
<path d="M107.414 23.0448C107.414 23.0448 107.063 23.2356 106.414 23.5945C106.078 23.7701 105.628 23.9686 105.117 24.2129C104.598 24.4114 104.011 24.671 103.316 24.8771C101.95 25.3276 100.257 25.7246 98.2956 25.9918C96.3347 26.2666 94.1067 26.4041 91.7032 26.4193C89.315 26.4193 86.7284 26.4193 83.9969 26.4193C81.2729 26.427 78.404 26.5033 75.4436 26.6026C69.515 26.8163 63.205 27.3126 56.9712 28.2898C55.4147 28.5418 53.8505 28.7861 52.3169 29.0839C50.7451 29.3816 49.242 29.687 47.7312 30.0458C44.7097 30.7482 41.7721 31.5652 38.9643 32.4813C33.3562 34.3213 28.2975 36.5201 24.162 38.7952C22.0942 39.9252 20.2249 41.0399 18.6607 42.1011C17.0965 43.17 15.8376 44.2235 14.8991 45.1779C13.9606 46.1322 13.3273 46.9644 12.9381 47.5599C12.7321 47.85 12.6024 48.0867 12.5032 48.2471C12.4117 48.4074 12.3583 48.4837 12.3583 48.4837L12.3354 48.5143C12.1446 48.8349 11.725 48.9418 11.4045 48.7509C11.0917 48.5601 10.9849 48.1631 11.1527 47.8424C11.1527 47.8424 11.1985 47.7508 11.2977 47.5752C11.3969 47.3996 11.5342 47.1324 11.7402 46.8041C12.1446 46.1399 12.8008 45.1855 13.7851 44.1243C14.7694 43.0631 16.0817 41.895 17.684 40.7345C19.294 39.5664 21.1557 38.383 23.254 37.192C27.4505 34.8099 32.5703 32.3973 38.3005 30.5039C41.1617 29.5496 44.1527 28.6945 47.2353 27.9692C48.7689 27.5951 50.356 27.2668 51.8972 26.9614C53.4766 26.656 55.0484 26.3812 56.6355 26.1445C62.9837 25.1978 69.3777 24.7473 75.3673 24.5717C78.3659 24.4725 81.2577 24.4877 84.0045 24.5259C86.7361 24.5794 89.315 24.6328 91.6956 24.6786C94.0609 24.6939 96.2126 24.6404 98.0972 24.4343C99.9818 24.2358 101.599 23.9075 102.889 23.5258C103.545 23.3502 104.102 23.1288 104.598 22.9608C105.071 22.7623 105.475 22.6096 105.804 22.4493C106.475 22.121 106.826 21.9377 106.826 21.9377C107.131 21.785 107.505 21.9072 107.665 22.2202C107.818 22.518 107.696 22.8844 107.406 23.0448H107.414Z" fill="#40433E"/>
<path d="M12.8008 51.698C12.8008 51.698 13.106 51.2551 13.663 50.6367C14.2124 50.026 15.0212 49.2701 15.8986 48.6135C16.7761 47.9493 17.7222 47.3843 18.4623 47.0255C19.2024 46.6667 19.7289 46.4911 19.7289 46.4911C19.9731 46.4071 20.2401 46.5445 20.324 46.7888C20.3851 46.9797 20.324 47.1782 20.1867 47.2927H20.1714C20.1714 47.2927 20.0723 47.392 19.8815 47.5294C19.6984 47.6668 19.4313 47.8653 19.1109 48.102C18.4776 48.5677 17.6306 49.1785 16.7837 49.7969C15.9444 50.423 15.1051 51.049 14.4718 51.5147C14.1513 51.7514 13.8843 51.9423 13.7012 52.0797C13.5104 52.2171 13.3959 52.2935 13.3959 52.2935C13.1976 52.4233 12.9305 52.3698 12.7932 52.1713C12.694 52.0186 12.7016 51.8278 12.7932 51.6827L12.8008 51.698Z" fill="#40433E"/>
<path d="M15.1203 59.745C15.1203 59.745 15.1203 59.745 15.1203 59.7526V59.7679C15.1051 59.8061 15.0746 59.8595 15.044 59.9053C14.9372 60.0656 14.6931 60.1344 14.5328 60.1038C14.4489 60.0885 14.365 60.0656 14.2734 59.9969C14.1895 59.9282 14.0827 59.8442 14.0369 59.6152C14.0369 59.5999 14.0369 59.6152 14.0369 59.5694C14.0369 59.5236 14.0369 59.4854 14.0369 59.4625C14.0369 59.4014 14.0521 59.348 14.0674 59.2945C14.1055 59.1953 14.1513 59.1189 14.1895 59.0655C14.3039 58.9281 14.4413 58.7601 14.5939 58.5692C14.7388 58.3936 14.9067 58.1951 15.0975 57.989C15.479 57.5767 15.9215 57.0881 16.4175 56.5918C16.9134 56.0956 17.4704 55.5917 18.035 55.0954C18.6073 54.6068 19.1872 54.1334 19.7518 53.7135C20.3088 53.286 20.8658 52.9272 21.3312 52.6141C22.2773 52.0033 22.9488 51.6598 22.9488 51.6598C23.1777 51.5376 23.46 51.6292 23.5744 51.8583C23.6736 52.0492 23.6279 52.2782 23.4676 52.4156C23.4676 52.4156 22.9183 52.9119 22.0713 53.6219C21.232 54.3319 20.1104 55.2787 18.9964 56.2177C17.8824 57.1644 16.7608 58.1188 15.9291 58.8288C15.7231 59.012 15.5247 59.1647 15.3569 59.3174C15.2729 59.3938 15.189 59.4549 15.1127 59.5236C15.044 59.5846 14.9525 59.661 14.9449 59.661C14.922 59.6915 14.9754 59.577 14.9525 59.5083C14.8686 59.2105 14.7541 59.2487 14.6854 59.2182C14.6168 59.2029 14.4413 59.2411 14.3573 59.3632C14.3268 59.4014 14.3116 59.4396 14.2963 59.4778V59.4701C14.3955 59.2564 14.6473 59.1647 14.8609 59.264C15.044 59.348 15.1356 59.5465 15.1051 59.7297L15.1203 59.745Z" fill="#40433E"/>
<path d="M18.9201 77.5263C18.9201 77.5263 18.9964 77.4118 19.1338 77.2209C19.2711 77.0377 19.4924 76.7399 19.7747 76.4345C20.0494 76.1215 20.4003 75.7779 20.7971 75.4344C21.1939 75.0908 21.644 74.7625 22.1095 74.4495C22.5825 74.1517 23.0709 73.8769 23.5439 73.6555C24.017 73.4341 24.4748 73.2585 24.8792 73.1363C25.6803 72.892 26.2373 72.8157 26.2373 72.8157C26.4968 72.7851 26.7333 72.9607 26.7638 73.2203C26.7867 73.4112 26.6951 73.5944 26.5349 73.686H26.5196C26.5196 73.686 26.4052 73.7624 26.1992 73.8616C25.9932 73.9609 25.7109 74.1212 25.3599 74.2968C24.6732 74.6556 23.7728 75.1519 22.903 75.6939C22.0332 76.2436 21.1939 76.8315 20.5758 77.3049C20.263 77.5416 20.0112 77.7172 19.8281 77.8775C19.645 78.0225 19.5305 78.1065 19.5305 78.1065C19.3321 78.2439 19.0651 78.1981 18.9277 77.9996C18.8209 77.8546 18.8209 77.6637 18.9201 77.5187V77.5263Z" fill="#40433E"/>
<path d="M20.675 82.1987C20.675 82.1987 20.6979 82.13 20.7513 82.0308C20.8047 81.9315 20.9039 81.7559 21.026 81.5956C21.2702 81.252 21.6669 80.8398 22.1247 80.5191C22.5825 80.1908 23.1014 79.9541 23.5058 79.8472C23.9178 79.7327 24.2077 79.7251 24.2077 79.7251C24.4824 79.7175 24.7037 79.9312 24.719 80.1984C24.719 80.3359 24.6732 80.4657 24.5816 80.5573L24.5511 80.5878C24.5511 80.5878 24.5053 80.6336 24.4138 80.7023C24.3222 80.7634 24.2077 80.8779 24.0551 80.9848C23.7576 81.2062 23.3684 81.4734 22.9717 81.7407C22.5749 82.0079 22.1705 82.2675 21.8577 82.466C21.6975 82.5652 21.5677 82.6263 21.4686 82.695C21.3694 82.7561 21.3007 82.7866 21.3007 82.7866C21.0718 82.8935 20.7971 82.7943 20.6903 82.5652C20.6369 82.4507 20.6369 82.3209 20.675 82.2064V82.1987Z" fill="#40433E"/>
<path d="M5.88034 25.5337C5.88034 25.5337 6.3 25.1596 6.9867 24.6481C7.67341 24.1442 8.62716 23.541 9.63433 23.0142C10.6339 22.4874 11.6792 22.0446 12.4803 21.7698C13.2815 21.4949 13.8385 21.3728 13.8385 21.3728C14.0903 21.3193 14.3421 21.472 14.4031 21.7316C14.4489 21.9301 14.365 22.121 14.2047 22.2279H14.1895C14.1895 22.2279 14.075 22.3118 13.8614 22.434C13.6477 22.5562 13.3502 22.7241 12.9916 22.9303C12.2667 23.3273 11.2901 23.8388 10.3134 24.335C9.33676 24.8313 8.35248 25.3199 7.60474 25.6788C7.22323 25.8544 6.9104 25.9994 6.68913 26.0987C6.46786 26.1979 6.33052 26.2514 6.33052 26.2514C6.10924 26.343 5.85745 26.2285 5.77352 26.0071C5.70485 25.8391 5.75826 25.6482 5.88797 25.5261L5.88034 25.5337Z" fill="#40433E"/>
<path d="M7.56659 33.1608C7.56659 33.1608 7.85653 32.7714 8.37537 32.2446C8.89422 31.7255 9.64959 31.0918 10.466 30.5497C11.2901 30.0153 12.1675 29.5725 12.8542 29.3053C13.5409 29.0457 14.0216 28.9312 14.0216 28.9312C14.2734 28.8701 14.5328 29.0304 14.5862 29.29C14.6244 29.4732 14.5557 29.6641 14.4107 29.771H14.3955C14.3955 29.771 14.2963 29.855 14.1284 29.9695C13.9606 30.084 13.7088 30.2443 13.4188 30.4352C12.8313 30.8093 12.0454 31.2979 11.2672 31.7942C10.4889 32.2981 9.703 32.7943 9.12312 33.1684C8.82555 33.3517 8.57375 33.512 8.40589 33.6189C8.2304 33.7334 8.12358 33.7869 8.12358 33.7869C7.90994 33.9014 7.65052 33.825 7.53607 33.6189C7.45214 33.4662 7.46739 33.283 7.56659 33.1455V33.1608Z" fill="#40433E"/>
<path d="M113.762 61.2261C113.762 61.2261 113.121 61.4323 111.999 61.7987C111.442 61.9896 110.74 62.1728 109.931 62.3713C109.527 62.4706 109.092 62.5775 108.634 62.692C108.177 62.7912 107.696 62.8676 107.192 62.9668C106.185 63.173 105.094 63.3257 103.934 63.4784C102.774 63.6387 101.546 63.7456 100.279 63.8525C99.0128 63.9288 97.6928 64.0204 96.3652 64.0586C95.0299 64.1197 93.6794 64.1426 92.3289 64.1731C89.6279 64.2037 86.9344 64.2189 84.4165 64.2724C83.1576 64.3258 81.9444 64.3335 80.7923 64.3945C79.6401 64.448 78.5566 64.5014 77.5571 64.593C76.5576 64.6618 75.642 64.761 74.8332 64.8526C74.0244 64.9366 73.3148 65.0206 72.7425 65.1275C71.5828 65.3031 70.9266 65.4023 70.9266 65.4023H70.9037C70.6519 65.4481 70.4154 65.2725 70.3772 65.0206C70.3391 64.7763 70.4993 64.5472 70.7358 64.4938C70.7358 64.4938 71.3997 64.3487 72.567 64.0968C73.1469 63.9594 73.8642 63.8448 74.6806 63.715C75.0926 63.6463 75.5275 63.5776 75.9853 63.5013C76.4507 63.4478 76.9314 63.3944 77.4427 63.3333C78.4575 63.2112 79.5562 63.1195 80.716 63.0355C81.8757 62.9363 83.1042 62.8905 84.3784 62.837C86.9116 62.7607 89.6126 62.7149 92.306 62.6767C93.6489 62.6538 94.9994 62.6538 96.3194 62.608C97.6394 62.5851 98.9365 62.5088 100.188 62.4477C101.439 62.3484 102.652 62.3026 103.789 62.1728C104.934 62.0583 106.01 61.9438 106.994 61.7758C107.49 61.6995 107.963 61.6308 108.413 61.562C108.856 61.4781 109.275 61.3941 109.672 61.3101C110.466 61.165 111.16 61.02 111.732 60.852C112.877 60.5619 113.533 60.3939 113.533 60.3939C113.762 60.3329 113.991 60.4703 114.052 60.6993C114.105 60.9207 113.983 61.1421 113.769 61.2108L113.762 61.2261Z" fill="#40433E"/>
<path d="M108.398 25.9612C108.398 25.9612 108.398 25.9613 108.398 25.9689C108.405 26.0605 108.398 25.7475 108.199 25.6559C107.993 25.549 107.887 25.6177 107.841 25.6253C107.787 25.6559 107.749 25.6711 107.703 25.7398C107.681 25.7704 107.642 25.8315 107.635 25.9383C107.635 26.0605 107.665 26.1674 107.772 26.259C107.772 26.259 107.734 26.2285 107.78 26.2743C107.818 26.3048 107.841 26.3124 107.864 26.3201C107.909 26.343 107.955 26.343 107.986 26.3506C108.093 26.3506 108.115 26.3201 108.032 26.3888C107.772 26.572 107.406 26.8469 106.91 27.1446C106.422 27.4195 105.857 27.7554 105.216 28.0455C104.575 28.3433 103.873 28.6105 103.156 28.8395C102.439 29.061 101.706 29.2518 101.012 29.3663C100.318 29.4961 99.6614 29.5496 99.1044 29.5877C98.5474 29.6336 98.0743 29.6107 97.7462 29.603C97.4181 29.5877 97.235 29.5725 97.235 29.5725C96.9756 29.5496 96.7849 29.3205 96.8077 29.061C96.8306 28.8472 96.9909 28.6792 97.1969 28.641C97.1969 28.641 97.8988 28.5189 98.9518 28.3357C99.4782 28.2517 100.081 28.099 100.722 27.9539C101.363 27.8012 102.042 27.618 102.721 27.4118C104.064 26.9996 105.392 26.5033 106.361 26.0758C106.834 25.862 107.253 25.6864 107.543 25.5413C107.597 25.5261 107.742 25.4192 107.978 25.4192C108.039 25.4192 108.115 25.4345 108.184 25.465C108.215 25.4803 108.253 25.4955 108.306 25.5337C108.367 25.5795 108.329 25.5566 108.352 25.5719C108.482 25.6864 108.52 25.8162 108.52 25.9612C108.512 26.091 108.466 26.175 108.428 26.2285C108.352 26.3277 108.291 26.3735 108.199 26.4117C108.123 26.4422 107.932 26.511 107.703 26.3888C107.482 26.2819 107.436 25.9536 107.436 26.03L107.49 26.0071C107.505 25.7704 107.734 25.5948 107.971 25.6101C108.169 25.6253 108.352 25.7704 108.39 25.9612H108.398Z" fill="#40433E"/>
<path d="M109.161 29.8015C109.161 29.8015 109.1 29.8702 108.978 29.9771C108.863 30.0764 108.672 30.252 108.436 30.4123C107.978 30.7482 107.299 31.1223 106.582 31.3743C105.865 31.6339 105.109 31.7713 104.537 31.7942C103.965 31.8171 103.583 31.7637 103.583 31.7637C103.324 31.7255 103.141 31.4812 103.179 31.2216C103.202 31.0536 103.309 30.9238 103.454 30.8551L103.484 30.8398C103.484 30.8398 103.568 30.8017 103.713 30.7559C103.858 30.7024 104.064 30.6337 104.308 30.5497C104.796 30.3894 105.445 30.1756 106.094 29.9695C106.734 29.7557 107.383 29.5267 107.871 29.3511C108.123 29.2595 108.314 29.206 108.474 29.1449C108.627 29.0915 108.718 29.0686 108.718 29.0686C108.955 29.0075 109.199 29.1449 109.26 29.3816C109.298 29.5343 109.26 29.687 109.161 29.7939V29.8015Z" fill="#40433E"/>
<path d="M113.96 48.3387C113.96 48.3387 113.701 48.4608 113.243 48.667C112.793 48.8578 112.106 49.1556 111.29 49.4381C110.473 49.7282 109.504 50.026 108.451 50.2932C107.398 50.5527 106.254 50.7665 105.109 50.9345C103.957 51.0872 102.805 51.1864 101.714 51.2246C100.63 51.2551 99.6156 51.2246 98.7458 51.1712C97.876 51.133 97.1587 51.0185 96.6628 50.9574C96.1668 50.881 95.8769 50.8352 95.8769 50.8352C95.6251 50.7971 95.4496 50.6215 95.4877 50.3695C95.5259 50.1405 95.7243 50.0412 95.9532 50.0412H95.9684C95.9684 50.0412 96.2507 49.9801 96.7467 49.9801C97.235 49.9954 97.9446 49.9496 98.7839 49.942C99.2036 49.942 99.6614 49.9114 100.142 49.8885C100.623 49.8733 101.126 49.8198 101.653 49.7969C102.698 49.7206 103.812 49.6137 104.919 49.4686C106.025 49.3236 107.124 49.1327 108.154 48.9342C108.665 48.8197 109.168 48.7357 109.634 48.6212C110.107 48.5143 110.549 48.4074 110.954 48.3005C111.77 48.0867 112.434 47.9188 112.915 47.7661C113.395 47.6286 113.67 47.5523 113.67 47.5523C113.899 47.4912 114.136 47.621 114.197 47.8424C114.258 48.0486 114.151 48.2623 113.96 48.3463V48.3387Z" fill="#40433E"/>
<path d="M115.524 51.7896C115.524 51.7896 115.128 52.0873 114.464 52.4538C113.808 52.8203 112.884 53.2325 111.931 53.5456C110.977 53.8586 109.992 54.0724 109.245 54.164C108.497 54.2556 107.993 54.248 107.993 54.248C107.734 54.248 107.52 54.0342 107.528 53.767C107.528 53.5761 107.65 53.4081 107.81 53.3394H107.826C107.826 53.3394 107.94 53.286 108.138 53.2173C108.337 53.1486 108.627 53.0493 108.97 52.9272C109.657 52.7134 110.565 52.4233 111.48 52.1331C112.396 51.8507 113.312 51.5605 113.998 51.3468C114.349 51.2475 114.639 51.1635 114.838 51.1025C115.044 51.0414 115.166 51.0185 115.166 51.0185C115.402 50.965 115.631 51.1101 115.685 51.3468C115.723 51.5224 115.654 51.6903 115.517 51.7972L115.524 51.7896Z" fill="#40433E"/>
<path d="M103.179 5.69865C103.179 5.69865 103.026 5.81317 102.759 6.01167C102.492 6.19491 102.088 6.48503 101.592 6.78278C101.096 7.08054 100.508 7.41647 99.8598 7.74476C99.2112 8.06542 98.5016 8.37844 97.7844 8.66856C96.3423 9.23353 94.8468 9.63818 93.7099 9.85958C93.1453 9.98174 92.6646 10.0352 92.3289 10.081C91.9932 10.1192 91.8024 10.1344 91.8024 10.1344C91.543 10.1497 91.3217 9.95883 91.2988 9.69925C91.2836 9.48548 91.4133 9.29461 91.604 9.2259H91.6117C91.6117 9.2259 91.7872 9.15719 92.1 9.05793C92.4128 8.95868 92.8554 8.81362 93.3895 8.63802C93.9236 8.47769 94.534 8.24102 95.1978 8.02725C95.854 7.79057 96.5559 7.54626 97.2503 7.27904C97.9446 7.01946 98.6313 6.73697 99.2799 6.47739C99.9208 6.21018 100.531 5.96587 101.035 5.72919C102.065 5.27874 102.759 4.97335 102.759 4.97335C102.973 4.88173 103.225 4.97335 103.324 5.19476C103.408 5.37799 103.347 5.58413 103.194 5.70628H103.186L103.179 5.69865Z" fill="#40433E"/>
<path d="M103.576 9.4244C103.576 9.4244 103.499 9.50075 103.354 9.61527C103.209 9.72979 102.988 9.91303 102.721 10.0886C102.179 10.4551 101.409 10.8674 100.6 11.1804C99.7835 11.4934 98.9365 11.6996 98.288 11.7759C97.6394 11.8599 97.1969 11.8446 97.1969 11.8446C96.9375 11.837 96.7314 11.6156 96.7391 11.356C96.7391 11.1728 96.8535 11.0201 97.0061 10.9437H97.0214C97.0214 10.9437 97.1206 10.8903 97.2884 10.8216C97.4563 10.7528 97.6928 10.6612 97.9828 10.5467C98.555 10.3406 99.318 10.0581 100.081 9.78324C100.844 9.50075 101.607 9.2259 102.179 9.01213C102.469 8.91288 102.713 8.82889 102.889 8.76781C103.064 8.70674 103.171 8.6762 103.171 8.6762C103.408 8.61512 103.644 8.75255 103.713 8.98159C103.759 9.14192 103.705 9.30988 103.591 9.41677L103.576 9.4244Z" fill="#40433E"/>
<path d="M3.79734 16.4178C3.79734 16.4178 4.24751 17.96 5.03341 20.6627C5.79641 23.3731 6.93329 27.2286 8.22277 31.8705C8.87133 34.1915 9.56566 36.711 10.3058 39.3755C11.0383 42.04 11.8394 44.842 12.6101 47.7508C14.1742 53.5685 15.8376 59.7832 17.5086 65.9902C19.149 72.2049 20.7818 78.4272 22.2697 84.2601C23.7805 90.0931 25.1081 95.5595 26.2907 100.232C27.4734 104.904 28.3814 108.821 29.0528 111.554C29.7014 114.295 30.0676 115.86 30.0676 115.86C30.1821 116.357 29.8769 116.86 29.3733 116.975C28.8926 117.09 28.4043 116.799 28.2669 116.334C28.2669 116.334 27.8168 114.791 27.0309 112.089C26.2679 109.378 25.131 105.531 23.8568 100.873C22.5825 96.2238 21.0489 90.8107 19.4924 84.9854C17.9129 79.1678 16.2725 72.9531 14.6396 66.7384C13.0297 60.5161 11.4274 54.2861 9.91664 48.4532C9.15364 45.5367 8.46693 42.7042 7.79549 40.0244C7.12404 37.3446 6.49838 34.8099 5.91086 32.4737C4.74346 27.7936 3.82786 23.8846 3.16404 21.1514C2.52312 18.4105 2.14925 16.8454 2.14925 16.8454C2.04242 16.3873 2.32474 15.9292 2.78254 15.8223C3.22508 15.7154 3.66763 15.9826 3.79734 16.4102V16.4178Z" fill="#40433E"/>
<path d="M5.78115 15.578C6.20844 17.1431 5.2852 18.7617 3.72104 19.1969C2.15688 19.6244 0.539303 18.7006 0.10439 17.1355C-0.322894 15.5704 0.600343 13.9518 2.16451 13.5243C3.72867 13.0967 5.34624 14.0205 5.78115 15.5856V15.578Z" fill="#40433E"/>
</svg>
