<svg width="69" height="67" viewBox="0 0 69 67" fill="none" xmlns="http://www.w3.org/2000/svg">
<path d="M8.73647 47.3984C9.94812 46.1911 8.95775 44.1099 10.1262 43.7469C13.5291 43.435 17.2045 43.9594 20.5776 43.6851C24.423 43.3732 27.691 40.4316 28.0607 36.5705L12.7573 36.5651C7.44928 36.9469 5.06108 39.4959 4.32708 44.5482C4.08151 46.2395 2.13857 46.1588 2.17095 44.2874C2.2627 39.106 6.74226 34.898 11.8128 34.5512C17.45 34.1667 23.5244 34.8523 29.2102 34.5512C30.6674 34.6883 30.2411 36.6404 30.0441 37.6702C29.5233 40.3805 27.5695 43.0129 25.1867 44.3788C21.1821 46.6751 16.1278 45.3333 11.7022 45.7178L11.5052 45.9222C11.4674 47.8151 9.90494 49.5656 8.11581 50.0657C6.31859 50.5658 6.63432 49.9608 5.3768 49.4338C2.89955 48.3959 0.805493 51.765 3.05877 53.4885C3.39608 53.7467 3.98436 53.8811 4.20834 54.2226C4.47819 54.6286 4.6401 56.0107 4.87488 56.6479C7.60579 64.1175 18.0842 64.9376 22.0186 58.0112C23.9211 54.6582 22.9712 50.9503 23.2384 47.2747C23.7862 45.9061 25.2407 46.2045 25.3729 47.643C25.6266 50.4072 25.5078 55.0803 24.4878 57.6508C20.7854 66.9837 7.38721 67.2715 3.23687 58.1456C2.94273 57.5003 2.59462 55.8493 2.37604 55.5105C2.2627 55.3358 1.48013 54.9082 1.1698 54.5641C-2.04955 50.9852 1.93888 45.6237 6.31859 47.5543C7.14434 47.92 6.97703 48.3878 8.07264 47.8743C8.22106 47.8044 8.62044 47.5167 8.73917 47.3984H8.73647Z" fill="white"/>
<path d="M45.987 22.8763V19.9885C45.987 19.733 46.6643 19.1684 46.9962 19.2464C51.6917 18.9371 56.9322 19.6685 61.5629 19.2544C62.8852 19.1361 63.5328 18.4881 63.6516 17.1733C64.0321 12.9465 63.406 8.09043 63.5868 3.80176C62.9931 0.98656 58.3975 3.48986 58.2572 1.3146C58.1628 -0.113169 60.7776 0.110003 61.6924 0.18529C63.8054 0.362753 65.4866 1.68297 65.6755 3.87167C66.0641 8.36201 65.384 13.4143 65.6593 17.9638C65.6323 19.1845 63.6651 21.2657 62.502 21.2657H48.1458V25.6296C48.1458 26.3637 47.142 26.9714 46.4781 26.4847L41.7152 21.2926C39.5996 21.0533 37.0791 21.5211 35.0148 21.2522C33.285 21.0264 31.8089 19.2759 31.6956 17.5766C31.9897 13.1911 31.3205 8.33512 31.6956 4.00611C31.8899 1.77439 33.482 0.386952 35.6786 0.18529C42.0606 -0.398185 49.2954 0.623569 55.7665 0.177224C57.3127 0.204112 57.5772 2.00294 56.0201 2.32291L35.4034 2.32828C34.2241 2.49499 33.8085 3.47103 33.7168 4.54119C33.9354 8.53947 33.4442 12.8066 33.7168 16.77C33.8004 17.988 34.1836 19.0501 35.5545 19.2356C37.7295 19.5314 40.3983 18.9909 42.6273 19.3082L45.9897 22.8736L45.987 22.8763Z" fill="white"/>
<path d="M59.1963 44.0911C62.8528 43.1151 66.0829 47.1187 63.9457 50.3668C63.603 50.8884 62.4777 51.6601 62.3644 51.8806C62.1809 52.2329 62.0298 53.2331 61.822 53.7547C58.7591 61.3964 48.1404 62.8725 43.2345 56.1612C40.6061 52.5663 41.1269 49.0547 41.1377 44.8305C41.5074 43.8599 42.6273 43.79 43.1292 44.7203C43.2534 48.5922 42.5221 52.3001 45.3097 55.4379C49.3278 59.9579 56.7433 59.1055 59.5363 53.7574C60.0194 52.8352 60.3486 50.7271 60.8802 50.262C61.4469 49.7672 62.0001 49.8398 62.3617 48.9202C63.0066 47.2827 61.652 45.8442 59.9465 46.1104C59.1261 46.2395 58.8158 47.1779 57.8093 46.8794C56.97 46.6293 57.1886 45.1586 57.1751 44.489C53.783 44.9972 50.4234 44.0373 48.0487 41.5528C46.694 42.0234 45.3285 42.4859 43.8821 42.5934C41.7989 42.7494 41.073 42.787 40.8679 40.5284C40.5548 37.0302 41.8798 34.3334 45.2422 33.075C48.3725 31.9027 55.2672 32.2764 58.5513 33.118C59.5363 33.3708 61.4631 33.7069 61.0232 35.0997C60.6238 36.358 58.5621 35.2449 57.6932 35.0486C54.6655 34.3602 47.7141 33.8359 45.056 35.4412C44.2302 35.9413 43.4531 36.7883 43.1508 37.7051C42.9943 38.1838 42.6084 40.4693 43.1023 40.5822C44.4866 40.4128 45.6281 40.3133 46.891 39.6841C47.2985 39.4825 47.6601 38.9554 48.2025 38.9877C48.7449 39.02 50.2965 40.8753 50.9874 41.3243C52.512 42.3165 54.374 42.6122 56.1712 42.4832C57.9685 42.3541 59.4608 41.1549 59.199 44.0884L59.1963 44.0911Z" fill="white"/>
<path d="M8.44773 27.8452C7.13355 27.6274 5.60888 25.9953 5.42808 24.6778C5.71952 20.053 5.00171 14.877 5.41188 10.3168C5.5657 8.59862 7.0418 7.17892 8.72028 6.89928C15.3479 7.31874 22.669 6.34001 29.2156 6.89391C30.689 7.01759 30.4462 8.73306 29.3371 8.90515L9.25999 8.91321C8.3209 9.01808 7.66786 9.57198 7.47356 10.4889L7.44118 24.019C7.57611 25.1483 8.27233 25.7372 9.38952 25.8367C14.0661 26.2481 19.3525 25.5221 24.0911 25.8259C24.4689 25.7695 25.0977 26.4148 25.0977 26.7052V29.4585L28.3683 25.9335C28.5464 25.8313 28.738 25.8447 28.935 25.8259C30.9481 25.6431 33.9461 26.1755 35.7838 25.8017C36.1616 25.7264 36.8201 25.2129 37.0225 24.8875C37.4704 24.1642 37.0845 22.5751 38.6146 22.9059C39.6778 23.1344 39.3864 24.3874 39.1543 25.1322C37.8536 29.2837 32.605 27.4258 29.3721 27.8748L24.558 33.1476C23.9535 33.481 22.9415 33.0185 22.9415 32.3436V27.8452H8.44773Z" fill="white"/>
<path d="M63.2333 64.4939C64.2722 62.2003 65.2869 59.8879 65.9237 57.4384C67.4835 51.4477 67.6805 43.3571 63.576 38.3155C63.0174 37.6272 61.625 36.9227 62.3644 35.9036C63.1874 34.7663 64.5313 36.2451 65.1196 36.9119C71.2614 43.8652 69.3293 58.5462 64.7418 65.9324C63.8782 67.3225 63.5247 67.2042 62.1701 66.4352C60.3081 65.3812 58.0386 62.8161 57.5313 60.7134C57.2318 59.4739 58.6836 58.6833 59.4446 59.8853C60.014 60.7887 60.1192 61.6733 60.9503 62.6816C61.2256 63.0177 62.896 64.7225 63.2306 64.4939H63.2333Z" fill="white"/>
<path d="M30.3139 17.7352C30.1142 17.8966 29.8633 17.9073 29.6177 17.9154H11.2731C10.1613 17.7729 10.0318 16.052 11.4107 15.8934H29.6123C30.573 15.8746 31.0021 17.1787 30.3112 17.7352H30.3139Z" fill="white"/>
<path d="M37.9993 13.9117L52.6604 13.8822C54.1419 13.8902 54.3012 15.8584 52.7981 16.0332H38.2368C36.8444 16.0278 36.6231 14.1887 37.9993 13.9117Z" fill="white"/>
<path d="M37.8617 9.74675L52.2584 9.71448C53.6292 9.87312 53.5861 11.594 52.2584 11.7338H37.9616C36.8794 11.5993 36.7877 10.021 37.8617 9.74675Z" fill="white"/>
<path d="M46.8343 7.26496C46.1597 6.59007 46.7264 5.38816 47.6709 5.42043C51.3058 5.72427 55.5722 5.02786 59.1315 5.42312C60.7534 5.60327 60.6589 7.45856 59.1315 7.57149C55.4831 7.32143 51.3975 7.9049 47.8031 7.57956C47.5198 7.55267 47.034 7.46394 46.837 7.26496H46.8343Z" fill="white"/>
<path d="M17.5094 20.2197L26.509 20.1955C27.5938 20.5827 27.3132 22.0293 26.2364 22.1987C23.662 21.9298 20.2322 22.5886 17.7604 22.1987C16.6189 22.0185 16.5622 20.4375 17.5121 20.2197H17.5094Z" fill="white"/>
<path d="M44.8725 5.72696C45.5174 6.37227 45.0776 7.43167 44.1601 7.56074C43.1023 7.70862 39.1516 7.71938 38.1127 7.56074C36.7229 7.34832 36.7229 5.64091 38.1127 5.4285C39.2164 5.2591 42.8837 5.28868 44.0387 5.41505C44.2626 5.43925 44.7268 5.57638 44.8752 5.72427L44.8725 5.72696Z" fill="white"/>
<path d="M11.4458 11.6289C12.3363 11.4703 16.5595 11.4676 17.4473 11.6289C18.8182 11.8763 18.8236 13.5487 17.6065 13.737C16.6378 13.8875 12.2608 13.8822 11.3109 13.7128C9.9724 13.4735 10.1856 11.8548 11.4458 11.6289Z" fill="white"/>
<path d="M21.5545 11.6289C22.5664 11.4488 26.5009 11.4757 27.5533 11.6316C29.0321 11.8521 28.9215 13.5461 27.7152 13.737C25.8829 14.0247 23.3274 13.5622 21.4169 13.7155C20.2349 13.3094 20.2916 11.8521 21.5545 11.6262V11.6289Z" fill="white"/>
<path d="M55.3833 9.74675C55.7989 9.65533 59.2853 9.64189 59.6389 9.74675C60.5375 10.0076 60.4835 11.5483 59.5282 11.7311C59.0344 11.8252 55.8609 11.8118 55.3806 11.7042C54.3632 11.4784 54.3632 9.97261 55.3806 9.74675H55.3833Z" fill="white"/>
<path d="M11.0383 20.2197C11.3783 20.1202 14.5194 20.1417 14.8594 20.252C15.7068 20.5262 15.5988 22.0266 14.5059 22.1987C14.0094 22.2767 11.489 22.2767 11.0707 22.1449C10.1559 21.8599 10.2611 20.4456 11.0383 20.2197Z" fill="white"/>
</svg>
