<svg width="59" height="59" viewBox="0 0 59 59" fill="none" xmlns="http://www.w3.org/2000/svg">
<path d="M44.7202 15.9189H48.0042C48.5438 15.9189 48.9405 17.2214 48.1471 17.5609C47.5545 17.8149 44.6187 17.517 44.4919 17.6486C43.0736 27.0131 33.3254 32.798 24.359 29.558C19.2716 27.7197 15.2634 23.0664 14.5416 17.6486H1.75156V57.3211H57.2773V17.6486H51.5741C51.5003 17.6486 51.0483 17.2907 50.9999 17.1868C50.7324 16.5979 51.0875 16.0413 51.6964 15.9258C53.6566 16.1291 56.2533 15.6279 58.1352 15.9258C58.5457 15.9905 58.9331 16.3762 59 16.7919L58.9193 58.4458L58.322 59L0.633064 58.9631L0.0795822 58.3649L0.0173155 17.0089C-0.11183 16.6695 0.515449 15.9189 0.771434 15.9189H14.3064C14.2925 14.2077 14.4009 12.1962 15.0259 10.582C15.501 9.35804 16.8039 9.68827 16.7186 10.8845C16.6494 11.8429 16.1144 13.1061 16.036 14.2469C15.8238 17.3577 16.7601 20.9256 18.7988 23.2996V21.0503C18.7988 20.4845 19.403 19.2583 19.7766 18.801C21.3217 16.9004 23.2405 17.293 25.1961 16.4986C25.5766 16.3438 25.8326 16.1475 25.9133 15.7203C26.1324 14.5472 25.4129 14.4525 24.8571 13.6026C23.764 11.9307 23.6879 8.9793 23.6325 6.98632C23.6002 5.8201 23.5887 4.97256 23.9808 3.86638C24.0476 3.6747 24.5089 2.83872 24.4443 2.77405C22.5625 3.43453 20.766 4.75548 19.433 6.23116C18.8772 6.84545 18.2153 8.40658 17.2398 7.85233C16.1398 7.22881 17.5788 5.73465 18.1069 5.13422C19.885 3.11353 22.4633 1.44155 25.0485 0.66561C35.2026 -2.37812 45.1168 5.41596 44.7202 15.9189ZM30.724 4.73239C31.5727 4.85248 32.6681 4.64463 33.5468 4.73239C32.057 0.240688 25.6112 1.04435 25.3691 5.76929C26.5129 5.62611 26.8589 3.48072 27.7398 3.3537C28.5308 3.23824 28.8237 3.82019 29.4395 4.17584C29.737 4.34904 30.4104 4.68851 30.7263 4.73239H30.724ZM40.2277 23.2996C45.7164 16.584 42.64 5.7716 34.5845 2.77174C34.7414 3.3029 35.0481 3.75322 35.1911 4.29592C35.597 5.82241 35.3041 11.0485 34.7183 12.538C34.5223 13.0368 34.1418 13.6327 33.8235 14.0645C33.4522 14.5679 33.074 14.5356 33.074 15.2862C33.074 15.8612 33.2147 16.2307 33.7474 16.4639C35.2003 17.1013 37.066 16.9789 38.4405 17.9973C39.2015 18.5608 40.2254 20.0966 40.2254 21.0526V23.3019L40.2277 23.2996ZM33.6621 6.4621H30.4934C29.9284 6.4621 28.66 5.7208 28.1342 5.4252C27.9335 5.91709 27.4954 6.41129 27.0964 6.75308C26.7459 7.0533 25.5328 7.63525 25.4821 7.90545C25.5835 10.2541 25.3806 12.8013 27.8597 13.9444C30.4819 15.1522 33.2031 13.3532 33.4291 10.5566L33.6621 6.46441V6.4621ZM31.3559 15.8035C30.1152 16.1175 28.9137 16.1175 27.6706 15.8035C27.6291 16.6117 27.0595 17.1821 26.6421 17.8057C28.1088 19.5261 30.927 19.5192 32.3845 17.8057C31.967 17.1798 31.3951 16.6117 31.3559 15.8035ZM36.6555 26.6459L38.4797 25.3018C38.3482 23.6991 38.9455 21.2351 37.9216 19.9003C37.0545 18.7687 35.4171 18.8033 34.1717 18.3761C31.8909 21.6438 27.1333 21.6461 24.8525 18.3761C23.5518 18.8149 21.8429 18.7733 21.0058 20.0342C20.111 21.3806 20.6922 23.6507 20.5238 25.2049L22.3687 26.6459V23.9347C22.3687 23.3851 23.6925 22.9394 24.0361 23.7638C24.3198 24.4474 23.8562 27.2856 24.2091 27.6274C24.4235 27.8352 26.1416 28.3271 26.5337 28.4125C28.4155 28.8282 30.4127 28.8352 32.2991 28.4541C32.8295 28.3456 34.3493 27.953 34.7414 27.6712C34.8659 27.5812 34.8959 27.5488 34.9235 27.3918C35.085 26.505 34.6906 24.4659 34.9835 23.7615C35.3271 22.9348 36.6509 23.3828 36.6509 23.9324V26.6436L36.6555 26.6459Z" fill="white"/>
<path d="M19.4353 38.1765C20.3716 38.3405 20.4408 39.5922 19.5483 39.9039L7.01886 39.8831C6.71905 39.6984 6.42386 39.3935 6.36852 39.0356C6.27627 38.4583 6.29011 36.6477 6.35929 36.0404C6.40772 35.6016 6.59683 35.239 7.02347 35.0935L36.019 35.0704C36.5748 35.2113 36.7316 35.6177 36.78 36.1535C36.8377 36.7863 36.8607 38.4444 36.7662 39.0356C36.7085 39.3935 36.4133 39.6984 36.1158 39.8831L23.1252 39.9039C22.1128 39.7099 22.5025 38.1765 23.1229 38.1765H35.0458V36.7932H8.08662V38.1765H19.4353Z" fill="white"/>
<path d="M7.13186 41.4304L29.564 41.4119C30.0829 41.5205 30.2905 41.8276 30.3827 42.3218C30.5234 43.0631 30.6387 45.8644 29.8546 46.19L7.11341 46.2431C6.73289 46.22 6.45384 45.8228 6.38466 45.4741C6.27166 44.9083 6.29703 43.1185 6.35237 42.4973C6.4008 41.9523 6.60375 41.6267 7.13186 41.4304ZM28.5931 43.137H8.08662V44.5203H28.5908V43.137H28.5931Z" fill="white"/>
<path d="M52.402 35.3314C52.5427 35.4861 52.6488 35.8279 52.6719 36.0427C52.7434 36.6847 52.748 38.292 52.6719 38.9317C52.6211 39.3681 52.3767 39.6568 52.0123 39.8854L39.0124 39.9155C38.618 39.8947 38.2906 39.4721 38.2052 39.1095C38.0807 38.5853 38.083 36.5045 38.1637 35.9387C38.2168 35.5531 38.4451 35.2205 38.8187 35.0981H52.01C52.1345 35.1651 52.3121 35.2344 52.4043 35.3337L52.402 35.3314ZM50.9399 36.7932H39.8818V38.1765H50.9399V36.7932Z" fill="white"/>
<path d="M17.3828 33.2968C17.1983 33.4654 16.8155 33.567 16.5618 33.5717L7.04653 33.5139C6.63603 33.3361 6.43309 33.0105 6.37082 32.574C6.29241 32.0175 6.28549 29.9136 6.41464 29.4102C6.55993 28.8513 7.03961 28.6643 7.57003 28.6065C10.3305 28.2994 13.626 28.8398 16.4442 28.6019C16.9954 28.5973 17.5511 28.8929 17.6434 29.4772C17.7356 30.0614 17.731 32.089 17.6549 32.7033C17.6319 32.8973 17.5258 33.1675 17.3828 33.2968ZM15.9207 30.3362H8.25958C7.91365 30.7034 8.15349 31.357 8.08662 31.835H15.9207V30.3362Z" fill="white"/>
<path d="M28.7084 52.0165C30.0345 51.4438 30.7148 53.3028 29.2827 53.6331C29.8292 54.4136 29.3703 55.5267 28.3533 55.1942C28.1526 55.1272 27.8736 54.79 27.8413 54.79C27.8044 54.79 27.5115 55.1642 27.2394 55.2242C26.1739 55.4598 25.8903 54.3998 26.4022 53.6331C24.9678 53.2913 25.6158 51.4623 26.9765 52.0165C26.8496 50.5408 28.743 50.5962 28.7061 52.0165H28.7084Z" fill="white"/>
<path d="M39.9971 52.0165C41.2955 51.4461 42.0012 53.3259 40.5714 53.6331C41.3163 54.8432 40.1032 55.887 39.1277 54.7877H38.964C38.2329 55.9955 36.8238 54.7184 37.6933 53.6331C36.2727 53.3398 36.8884 51.4484 38.2675 52.0165C38.1407 50.5408 40.034 50.5962 39.9971 52.0165Z" fill="white"/>
<path d="M34.3539 52.0165C35.68 51.4438 36.3603 53.3028 34.9282 53.6331C35.6731 54.8432 34.46 55.887 33.4845 54.7877H33.3208C32.5736 55.9886 31.2337 54.7577 32.0478 53.6331C30.6133 53.2913 31.2613 51.4623 32.622 52.0165C32.4952 50.5408 34.3885 50.5962 34.3516 52.0165H34.3539Z" fill="white"/>
<path d="M45.6426 52.0165C46.9502 51.4392 47.6121 53.319 46.2169 53.6331C46.9618 54.8432 45.7487 55.887 44.7732 54.7877H44.6095C43.8784 55.9955 42.4693 54.7184 43.3388 53.6331C41.9182 53.3398 42.5339 51.4484 43.913 52.0165C43.7862 50.5408 45.6795 50.5962 45.6426 52.0165Z" fill="white"/>
<path d="M51.2858 52.0165C52.5934 51.4392 53.2553 53.319 51.8601 53.6331C52.5704 54.8709 51.4104 55.8777 50.4164 54.7877H50.2527C49.5216 55.9955 48.1126 54.7184 48.982 53.6331C47.5199 53.3559 48.1956 51.4461 49.5562 52.0165C49.4294 50.5408 51.3227 50.5962 51.2858 52.0165Z" fill="white"/>
<path d="M29.0405 8.98854C29.1789 8.8315 28.7361 7.08332 30.0252 7.15491C31.093 7.21495 30.9246 9.3257 30.5326 9.96078C29.7577 11.2171 27.6845 10.7691 28.3348 9.3742C28.5193 8.97699 28.9852 9.05551 29.0428 8.98854H29.0405Z" fill="white"/>
</svg>
