<svg width="60" height="60" viewBox="0 0 60 60" fill="none" xmlns="http://www.w3.org/2000/svg">
<path d="M30.9348 7.50028V20.0391C33.4545 19.6026 33.3794 22.292 30.9348 21.9141V29.0624H40.6615C40.8515 27.7928 40.3612 26.2439 40.5512 25.0283C40.6615 24.3243 41.5835 24.1553 42.0621 24.5566C42.7565 25.1362 42.3624 28.1354 42.6533 29.0647H52.4972C52.4714 28.5086 52.4339 27.9336 52.3659 27.3798C52.2579 26.5232 51.5072 24.5449 52.8022 24.3782C53.9917 24.2257 53.9917 25.5962 54.1207 26.4457C56.5113 42.2958 43.092 55.9376 27.2492 54.255C26.475 54.1728 24.4996 54.0696 24.38 53.1332C24.1712 51.4928 26.3812 52.2602 27.2633 52.3682C27.8545 52.4409 28.4691 52.4902 29.065 52.4996V39.9608C26.5102 40.4067 26.6322 37.7102 29.065 38.0857V30.9375H19.3384C19.1155 32.1273 19.6739 33.8568 19.4299 34.9551C19.2234 35.8845 17.8064 35.8328 17.607 34.7181C17.3912 33.5025 17.5507 32.1648 17.3442 30.9375H7.50028C7.59177 31.4538 7.56596 32.0146 7.61758 32.5192C7.68327 33.1411 8.02109 34.2159 7.97887 34.7463C7.91787 35.5113 7.01465 35.8516 6.41641 35.394C5.9472 35.0326 5.66802 32.2775 5.62579 31.5828C4.74838 16.4133 17.5953 4.09511 32.7366 5.76132C33.5999 5.85519 35.5847 5.92794 35.6292 6.97929C35.6973 8.59152 33.438 7.71852 32.5161 7.62231C32.0117 7.56833 31.451 7.59649 30.9348 7.50497V7.50028ZM29.0603 7.61761C24.495 8.80743 22.1747 14.0571 20.9665 18.2133C23.5143 19.2928 26.2756 20.0039 29.0603 20.0391V7.61761ZM24.1384 8.32164C20.4785 9.21342 17.1331 11.1964 14.4164 13.7685C14.4164 13.914 16.251 15.423 16.5325 15.6342C17.0369 16.0097 18.3554 16.9578 18.8715 17.1643C18.9888 17.2112 19.085 17.2558 19.2164 17.2253C20.2017 13.9562 21.7501 10.7881 24.1407 8.32164H24.1384ZM7.50028 29.06H17.3442C17.4967 27.4455 17.5178 25.8262 17.7126 24.214C17.9167 22.5173 18.278 20.8417 18.6439 19.1755C16.6123 18.1218 14.8598 16.6621 13.0838 15.2423C9.66332 18.9994 7.77945 23.9981 7.50262 29.06H7.50028ZM29.0603 21.9118C26.0738 21.9047 23.1554 21.0834 20.3894 20.0367C19.9554 22.299 19.4768 24.5848 19.336 26.894C19.2914 27.6121 19.4557 28.3889 19.2187 29.06H29.0627V21.9118H29.0603ZM40.7788 30.9351H30.9348V38.0834C33.9213 38.0787 36.8421 38.9071 39.6058 39.9584C40.021 37.6962 40.5184 35.4081 40.6591 33.1012C40.7037 32.3831 40.5395 31.6063 40.7764 30.9351H40.7788ZM52.4949 30.9351H42.6509C42.4867 32.5473 42.4773 34.1713 42.2849 35.7835C42.0808 37.4967 41.6797 39.1911 41.37 40.8854C43.3923 41.8546 45.1706 43.258 46.8269 44.7552C47.1647 44.8139 48.8327 42.324 49.0978 41.8945C51.1365 38.6044 52.34 34.819 52.4925 30.9351H52.4949ZM30.9348 39.9584V52.3799C35.5072 51.1948 37.7993 45.931 39.0286 41.7842C36.4809 40.7047 33.7196 39.9936 30.9348 39.9584ZM35.8568 51.6735C39.519 50.7911 42.8621 48.794 45.5788 46.2267C45.5788 46.0718 43.6808 44.5253 43.3946 44.3117C43.0544 44.0583 40.9923 42.6197 40.7788 42.7699C39.8005 46.0413 38.2286 49.1953 35.8545 51.6735H35.8568Z" fill="white"/>
<path d="M1.60938 37.5248L24.7296 37.5483C26.3014 38.7616 24.5677 39.2403 23.8381 39.9514C23.1671 40.6085 22.6087 41.7913 22.5102 42.7253L22.4985 58.4158C22.3343 59.3475 21.7313 59.9083 20.8023 59.9999H1.92844C1.1519 60.0116 0.269794 59.2958 0.0797652 58.566L0 39.3107C0.0563048 38.5058 0.828151 37.6539 1.60938 37.5225V37.5248ZM21.912 39.3718H1.87448V58.1201H20.6217V42.3592C20.6217 42.1668 20.9384 41.1483 21.0322 40.8948C21.234 40.3574 21.5624 39.8247 21.9096 39.3694L21.912 39.3718Z" fill="white"/>
<path d="M38.8715 0.0281612L58.1793 0C58.909 0.0422419 59.7348 0.732192 59.9154 1.42918L59.9999 20.5694C60.0116 21.3462 59.296 22.2286 58.5664 22.4187L35.2633 22.4469C33.7946 21.2101 35.4157 20.7666 36.1548 20.0438C36.8257 19.3867 37.3841 18.2039 37.4826 17.2699L37.6093 1.10768C37.8369 0.549144 38.2826 0.176008 38.8715 0.0281612ZM39.3735 1.87507V17.636C39.3735 17.8284 39.0568 18.8469 38.963 19.1004C38.7612 19.6378 38.4328 20.1705 38.0855 20.6258H58.123V1.87507H39.3735Z" fill="white"/>
<path d="M6.29441 45.0204L16.1055 45.0017C17.1448 45.1636 17.1871 46.7336 15.9976 46.872C13.0369 47.2147 9.42402 46.6162 6.39295 46.8626C5.40527 46.7078 5.34192 45.2997 6.29441 45.0204Z" fill="white"/>
<path d="M6.29441 50.6456L12.3566 50.6269C13.3935 50.7888 13.3912 52.3259 12.3566 52.4879C11.4346 52.631 7.31729 52.631 6.39529 52.4879C5.40761 52.333 5.34427 50.9249 6.29676 50.6456H6.29441Z" fill="white"/>
<path d="M43.7911 7.52374L53.6022 7.50497C54.6415 7.6669 54.6837 9.23689 53.4943 9.37534C50.5336 9.71797 46.9207 9.11955 43.8896 9.36596C42.902 9.21107 42.8386 7.80301 43.7911 7.52374Z" fill="white"/>
<path d="M43.7911 13.1489L51.7277 13.1302C52.7647 13.2921 52.7623 14.8292 51.7277 14.9912C49.4357 15.3479 46.2755 14.7448 43.8896 14.9912C42.902 14.8363 42.8386 13.4282 43.7911 13.1489Z" fill="white"/>
</svg>
