<svg width="78" height="72" viewBox="0 0 78 72" fill="none" xmlns="http://www.w3.org/2000/svg">
<path d="M39.8509 32.2539C43.7252 32.8163 46.4281 36.5165 46.0304 40.3845C45.931 41.3414 45.4619 42.1679 45.2972 43.0937L53.2663 48.9843C62.8105 38.6727 80.041 47.5831 76.695 61.421C73.8273 73.2767 57.6252 75.5726 51.6103 64.9379C49.0441 60.405 49.3206 55.3968 51.7812 50.8888L43.6692 44.992C40.7457 47.7322 36.4054 47.5707 33.4353 44.9951L25.4259 50.8857C28.8123 56.8228 27.8492 64.2699 22.5396 68.7034C14.3406 75.5447 1.72997 70.7446 0.164126 60.2124C-1.83047 46.7971 14.8377 39.1201 23.9377 48.9812L31.9067 43.0906C31.7421 42.1648 31.2698 41.3383 31.1735 40.3814C30.7758 36.5134 33.4819 32.8132 37.353 32.2508L37.294 27.1276C30.0116 26.2981 24.4938 20.0223 24.9412 12.628C26.0224 -5.22079 53.3408 -3.69844 52.2628 14.3492C51.8651 21.0289 46.5027 26.4069 39.91 27.1308L39.8509 32.2539ZM46.0522 21.7124C52.6138 15.9896 50.0631 5.07529 41.6684 2.74826C30.2446 -0.420718 22.4184 13.877 31.1518 21.7124C30.9125 18.7858 32.3603 15.9523 34.8893 14.489C34.9266 14.256 34.0753 13.1096 33.9169 12.6684C32.8108 9.54603 34.1747 5.37044 37.788 4.84538C42.2774 4.19294 44.6541 8.8035 43.284 12.6684C43.1286 13.1096 42.2774 14.256 42.3115 14.489C44.8405 15.9523 46.2883 18.7858 46.0491 21.7124H46.0522ZM38.0956 7.32464C36.1693 7.63532 35.9146 9.78215 36.132 11.3853C36.508 14.1379 40.7426 14.2622 41.0843 11.2455C41.3205 9.1701 40.609 6.92075 38.0956 7.32774V7.32464ZM43.545 23.5517C44.098 19.9881 42.7341 15.9088 38.5212 15.9586C34.3984 16.0083 33.1246 20.0751 33.6528 23.5548C36.8994 24.9932 40.3014 25.0119 43.545 23.5517ZM37.9464 34.6307C31.7669 35.3577 32.497 44.9143 38.9872 44.5104C45.4712 44.1065 44.8063 33.8229 37.9464 34.6307ZM21.2254 66.3857C27.7902 60.6691 25.227 49.7486 16.8417 47.4215C5.4178 44.2526 -2.39591 58.544 6.32499 66.3857C6.08577 63.4591 7.53356 60.6256 10.0625 59.1623C10.0998 58.9293 9.24853 57.7829 9.09008 57.3417C7.98405 54.2193 9.34795 50.0437 12.9612 49.5187C17.4506 48.8662 19.8273 53.4768 18.4572 57.3417C18.3019 57.7829 17.4506 58.9293 17.4848 59.1623C20.0137 60.6256 21.4615 63.4591 21.2223 66.3857H21.2254ZM70.8758 66.3857C77.4406 60.6691 74.8775 49.7486 66.4921 47.4215C55.0682 44.2526 47.2545 58.544 55.9754 66.3857C55.7362 63.4591 57.184 60.6256 59.713 59.1623C59.7502 58.9293 58.899 57.7829 58.7405 57.3417C57.6345 54.2193 58.9984 50.0437 62.6116 49.5187C67.101 48.8662 69.4778 53.4768 68.1077 57.3417C67.9523 57.7829 67.101 58.9293 67.1352 59.1623C69.6642 60.6256 71.112 63.4591 70.8727 66.3857H70.8758ZM13.2688 51.9979C11.3425 52.3086 11.0878 54.4554 11.3053 56.0586C11.6812 58.8112 15.9158 58.9355 16.2576 55.9187C16.4937 53.8434 15.7822 51.594 13.2688 52.001V51.9979ZM62.9223 51.9979C60.9961 52.3086 60.7413 54.4554 60.9588 56.0586C61.3347 58.8112 65.5694 58.9355 65.9111 55.9187C66.1472 53.8434 65.4358 51.594 62.9223 52.001V51.9979ZM18.7182 68.2281C19.2712 64.6645 17.9073 60.5852 13.6944 60.6349C9.61825 60.6846 8.1891 64.7888 8.90057 68.2653C12.1161 69.6634 15.5244 69.6883 18.7182 68.2281ZM68.3717 68.2281C68.9248 64.6645 67.5608 60.5852 63.348 60.6349C59.2718 60.6846 57.8426 64.7888 58.5541 68.2653C61.7697 69.6634 65.1779 69.6883 68.3717 68.2281Z" fill="#DE133D"/>
<path d="M23.7047 18.2949L21.766 19.6868L20.138 17.7605L22.232 16.145L23.7047 18.2949Z" fill="#DE133D"/>
<path d="M59.0264 19.7054C59.1786 19.6774 60.7444 21.408 60.7662 21.6596C60.8004 22.0386 59.3277 22.9303 59.0015 23.2317L57.3859 21.3427L59.0232 19.7023L59.0264 19.7054Z" fill="#DE133D"/>
<path d="M62.6334 24.0581L63.8917 26.3634L61.7945 27.4135L60.4897 25.3754C60.7693 25.0616 62.332 23.8779 62.6303 24.055L62.6334 24.0581Z" fill="#DE133D"/>
<path d="M66.9985 36.7589L64.5161 36.9111L64.2023 34.4318L66.5356 34.0311L66.9985 36.7589Z" fill="#DE133D"/>
<path d="M18.0595 19.7023L19.8149 21.3458L18.1962 23.2565L16.4315 21.7715C16.3508 21.3614 17.7923 20.1404 18.0564 19.7054L18.0595 19.7023Z" fill="#DE133D"/>
<path d="M12.9954 34.438L12.6878 36.9111L10.2054 36.7589L10.6653 34.0311L12.9954 34.438Z" fill="#DE133D"/>
<path d="M54.9719 16.1294L57.0659 17.7605L55.438 19.693C55.1708 19.2145 53.6453 18.5124 53.6515 18.0681L54.9719 16.1294Z" fill="#DE133D"/>
<path d="M16.7143 25.1393C16.8168 25.2822 15.5772 27.4352 15.4032 27.4352L13.3061 26.3634L14.6389 24.027L16.7112 25.1393H16.7143Z" fill="#DE133D"/>
<path d="M65.1282 28.8519L65.8987 31.238C65.8148 31.5704 63.9631 31.8967 63.5872 32.1048L62.8136 29.6318L65.1282 28.8519Z" fill="#DE133D"/>
<path d="M14.3841 29.638L13.6168 32.1048L11.3022 31.2411L12.0789 28.8551L14.3841 29.638Z" fill="#DE133D"/>
<path d="M12.5356 39.3935L12.6847 41.8696L10.2085 42.1896L10.0501 39.5488L12.5356 39.3935Z" fill="#DE133D"/>
<path d="M67.1507 39.3966L66.9923 42.1834L64.5783 41.8851L64.6684 39.5488L67.1507 39.3966Z" fill="#DE133D"/>
<path d="M35.1876 65.2983L35.0322 67.7838L32.5561 67.4669L33.0159 64.9907L35.1876 65.2983Z" fill="#DE133D"/>
<path d="M39.6863 65.6121L39.8416 68.0914H37.3592L37.5146 65.6121H39.6863Z" fill="#DE133D"/>
<path d="M48.5314 63.748L49.3082 66.075L46.9811 66.8517L46.366 64.3756L48.5314 63.748Z" fill="#DE133D"/>
<path d="M44.185 64.9907L44.6541 67.47L42.1686 67.7838L42.0133 65.2983L44.185 64.9907Z" fill="#DE133D"/>
<path d="M30.8442 64.3694L30.2104 66.684C29.9246 66.8859 28.3432 66.1092 27.902 66.0688L28.6818 63.7542L30.8473 64.3694H30.8442Z" fill="#DE133D"/>
</svg>
