<svg width="216" height="49" viewBox="0 0 216 49" fill="none" xmlns="http://www.w3.org/2000/svg">
<path d="M9.92 34.04H21.8V40H2.8V12H9.92V34.04ZM29.9828 9.64C30.6761 8.94667 31.5561 8.6 32.6228 8.6C33.6895 8.6 34.5561 8.94667 35.2228 9.64C35.9161 10.3067 36.2628 11.1733 36.2628 12.24C36.2628 13.3067 35.9161 14.1867 35.2228 14.88C34.5561 15.5733 33.6895 15.92 32.6228 15.92C31.5561 15.92 30.6761 15.5733 29.9828 14.88C29.3161 14.1867 28.9828 13.3067 28.9828 12.24C28.9828 11.1733 29.3161 10.3067 29.9828 9.64ZM36.0228 40H29.1428V18.44H36.0228V40ZM59.6847 18.12C62.058 18.12 63.9647 18.88 65.4047 20.4C66.8447 21.8933 67.5647 23.8933 67.5647 26.4V40H60.6847V28.32C60.6847 27.0667 60.338 26.08 59.6447 25.36C58.978 24.6133 58.058 24.24 56.8847 24.24C55.658 24.24 54.6447 24.64 53.8447 25.44C53.0714 26.24 52.618 27.2933 52.4847 28.6V40H45.5647V18.44H52.4847V21.96C54.0047 19.4533 56.4047 18.1733 59.6847 18.12ZM97.0788 18.44V38.04C97.0788 41.08 95.9988 43.5067 93.8388 45.32C91.7054 47.1333 88.8921 48.04 85.3988 48.04C81.8254 48.04 78.6254 47.0933 75.7988 45.2L78.1988 40.52C80.2788 41.96 82.5054 42.68 84.8788 42.68C86.5321 42.68 87.8254 42.28 88.7588 41.48C89.7188 40.68 90.1988 39.6 90.1988 38.24V35.96C88.7321 37.88 86.6654 38.84 83.9987 38.84C81.2521 38.84 79.0121 37.88 77.2788 35.96C75.5721 34.04 74.7188 31.52 74.7188 28.4C74.7188 25.36 75.5588 22.9067 77.2388 21.04C78.9188 19.1467 81.1188 18.2 83.8388 18.2C86.5854 18.1733 88.7054 19.1333 90.1988 21.08V18.44H97.0788ZM85.7188 33.84C87.0521 33.84 88.1321 33.36 88.9588 32.4C89.7854 31.4133 90.1988 30.1467 90.1988 28.6C90.1988 27.0267 89.7854 25.76 88.9588 24.8C88.1321 23.8133 87.0521 23.32 85.7188 23.32C84.3588 23.32 83.2521 23.8133 82.3988 24.8C81.5721 25.76 81.1588 27.0267 81.1588 28.6C81.1588 30.1467 81.5721 31.4133 82.3988 32.4C83.2521 33.36 84.3588 33.84 85.7188 33.84Z" fill="black"/>
<path d="M136.177 40H133.217L133.177 16.92L122.977 37.04H121.057L110.897 16.92V40H107.857V12H111.817L122.057 32.16L132.257 12H136.177V40ZM156.573 18.84C159.906 18.8133 162.413 19.8667 164.093 22C165.8 24.1333 166.573 27.0267 166.413 30.68H149.213C149.48 32.7333 150.306 34.3733 151.693 35.6C153.08 36.8 154.8 37.4 156.853 37.4C159.52 37.4 161.693 36.52 163.373 34.76L165.093 36.6C162.986 38.9467 160.16 40.12 156.613 40.12C153.52 40.12 151 39.1333 149.053 37.16C147.106 35.1867 146.133 32.6267 146.133 29.48C146.133 26.3333 147.106 23.7733 149.053 21.8C151 19.8267 153.506 18.84 156.573 18.84ZM149.213 28.12H163.613C163.506 26.0933 162.813 24.4933 161.533 23.32C160.28 22.12 158.626 21.52 156.573 21.52C154.573 21.52 152.906 22.12 151.573 23.32C150.24 24.52 149.453 26.12 149.213 28.12ZM184.089 18.84C187.422 18.8133 189.929 19.8667 191.609 22C193.315 24.1333 194.089 27.0267 193.929 30.68H176.729C176.995 32.7333 177.822 34.3733 179.209 35.6C180.595 36.8 182.315 37.4 184.369 37.4C187.035 37.4 189.209 36.52 190.889 34.76L192.609 36.6C190.502 38.9467 187.675 40.12 184.129 40.12C181.035 40.12 178.515 39.1333 176.569 37.16C174.622 35.1867 173.649 32.6267 173.649 29.48C173.649 26.3333 174.622 23.7733 176.569 21.8C178.515 19.8267 181.022 18.84 184.089 18.84ZM176.729 28.12H191.129C191.022 26.0933 190.329 24.4933 189.049 23.32C187.795 22.12 186.142 21.52 184.089 21.52C182.089 21.52 180.422 22.12 179.089 23.32C177.755 24.52 176.969 26.12 176.729 28.12ZM213.284 36.04L214.164 38.56C212.644 39.6 211.058 40.1333 209.404 40.16C207.778 40.16 206.471 39.6667 205.484 38.68C204.524 37.6667 204.044 36.16 204.044 34.16V22.12H201.004V19.6H204.044V14.04H207.124V19.6L213.804 19.56V22.12H207.124V33.6C207.124 35.9467 208.058 37.12 209.924 37.12C211.018 37.12 212.138 36.76 213.284 36.04Z" fill="#DE133D"/>
</svg>
