<svg width="67" height="62" viewBox="0 0 67 62" fill="none" xmlns="http://www.w3.org/2000/svg">
<path d="M21.2313 13.448H23.5156C23.939 13.448 25.4888 14.0598 25.9331 14.2916C28.2827 15.5127 29.8718 17.9757 30.1122 20.6001L36.816 20.6131C37.208 17.9418 38.771 15.4059 41.2408 14.203C41.6302 14.013 43.133 13.4454 43.4832 13.4454H45.7675C45.8302 13.1382 45.7283 13.2371 45.6002 13.1538C44.2516 12.2946 43.4911 11.7947 42.741 10.282C39.2388 3.20802 47.8531 -3.86076 52.9443 2.44777C55.1162 5.13989 54.9306 9.53738 52.4948 12.0186C51.9433 12.581 51.1697 12.9143 50.5973 13.4454H53.0123C53.2632 13.4454 54.5386 13.9349 54.8627 14.0729C56.5536 14.8045 57.5024 15.9605 58.6523 17.3222C60.7902 17.5617 63.328 17.0956 65.4162 17.3456C66.3989 17.4628 66.838 18.1735 66.919 19.1004C67.1752 21.9956 66.7256 25.271 66.9034 28.2078C66.8694 28.9446 66.0095 29.8455 65.2829 29.8455H60.6491C62.1963 31.6107 63.5684 33.652 64.0859 35.9874C65.3404 41.6789 62.1022 46.5216 57.6513 49.7084C58.851 51.3643 59.4861 52.9707 59.6115 55.0302C59.6951 56.3814 59.7239 58.5268 59.6115 59.8572C59.5096 61.0471 58.9398 61.8334 57.7141 62L38.1306 61.875C37.6628 61.7344 36.897 60.9742 36.897 60.5029V56.2721L30.4232 56.2773C30.3135 56.2486 30.1096 56.4101 30.1096 56.4673V60.5029C30.1096 60.9768 29.3438 61.7344 28.876 61.875L9.29257 62C8.06681 61.8334 7.49705 61.0471 7.39512 59.8572C7.28012 58.4982 7.30626 56.2773 7.39512 54.9C7.52319 52.8874 8.20533 51.3278 9.35529 49.7084C6.96911 47.9744 4.83644 45.7691 3.6342 43.0406C1.53812 38.2864 2.93899 33.5244 6.35754 29.8455H1.71846C0.991889 29.8455 0.132027 28.942 0.0980505 28.2078C0.273159 25.271 -0.176374 21.9956 0.0823691 19.1004C0.16339 18.1735 0.602468 17.4628 1.58517 17.3456C3.67341 17.0956 6.21118 17.5617 8.34907 17.3222C9.4729 15.9787 10.5628 14.7342 12.2276 14.0312C12.5491 13.8958 13.8585 13.4428 14.1172 13.4428H16.4015C15.3273 12.6643 14.3158 11.9848 13.6049 10.8288C12.0447 8.28505 12.1649 4.7858 14.0545 2.44516C18.887 -3.54312 27.0413 2.50765 24.629 9.4775C24.02 11.2375 22.7028 12.4039 21.2313 13.4428V13.448ZM21.4456 3.21062C17.0209 -0.952538 11.765 7.13165 16.3387 10.8418C20.9125 14.5519 25.4758 7.00408 21.4456 3.21062ZM47.6937 2.15877C42.4822 2.87216 43.0807 12.1852 48.5718 11.7557C53.9897 11.3339 53.3651 1.38029 47.6937 2.15877ZM11.3129 17.3534H15.816C16.1845 17.3534 17.0549 18.361 17.0549 18.7203V23.2115C20.6276 22.1128 24.2657 21.1442 28.0188 20.8683C27.943 18.5224 26.0481 16.2208 23.7691 15.6689C22.3421 15.3226 16.0094 15.3564 14.3942 15.5439C13.6076 15.635 12.1021 16.3041 11.5716 16.8952C11.4409 17.041 11.2658 17.1165 11.3129 17.3534ZM55.8166 17.3534C55.0247 16.2911 53.5507 15.6194 52.2334 15.5257C50.1321 15.3747 45.7858 15.2992 43.7576 15.5465C41.2852 15.8485 39.0558 18.4131 38.9774 20.8683C42.7305 21.1416 46.3712 22.105 49.9413 23.2115V18.7203C49.9413 18.361 50.8116 17.3534 51.1802 17.3534H55.8166ZM14.9666 19.4363H2.17583V27.7678H10.5941C11.1482 27.7678 12.191 29.5565 12.7451 29.8507C12.5569 28.2859 13.4298 27.5309 14.964 27.7678V19.4363H14.9666ZM64.823 19.4363H52.0322V27.7678C53.5507 27.5387 54.4837 28.2807 54.2511 29.8507C54.7738 29.5721 55.8793 27.7678 56.4021 27.7678H64.8203V19.4363H64.823ZM49.9309 25.4376C41.1937 22.3471 31.1812 21.7561 22.1435 23.9249C21.4326 24.0967 17.4965 25.1772 17.1829 25.4845C16.9033 25.7578 17.1176 27.5439 17.0575 28.0933C16.9189 29.3352 16.0382 29.8793 14.8386 29.8507C14.9091 31.4884 15.0921 33.7353 12.7007 32.9568L9.98255 29.8767C9.51211 29.6034 8.3935 30.7255 8.04851 31.0822C6.97695 32.1887 5.74596 33.9904 5.252 35.451C3.43818 40.7962 6.72082 45.3473 10.9313 48.2712C11.2658 48.3832 11.5193 48.0108 11.8382 47.8807C13.3253 47.2662 14.7784 46.9277 16.4041 47.0319L15.1679 46.2482C10.2152 42.3818 12.7242 33.3239 19.2163 33.7483C25.0628 34.1336 26.9603 42.3923 22.7394 45.993L21.2366 47.0293C25.7084 46.7064 29.5947 49.7058 30.1279 54.1736L36.8082 54.1944C37.5295 49.7292 41.2042 46.7194 45.7701 47.0293L44.4764 46.1727C40.4227 42.9338 41.4551 35.399 46.5803 33.9722C52.9757 32.1913 56.8464 40.5307 52.8215 45.2744L50.7306 47.0267C52.5915 46.9408 54.3844 47.386 55.9917 48.3024C60.1055 45.4931 63.3724 41.179 61.9167 35.9327C61.4253 34.1571 59.8598 31.8555 58.4981 30.6214C58.1793 30.3324 57.437 29.6294 57.0189 29.8715C56.3968 30.6005 55.7617 31.5092 55.1031 32.1887C54.4915 32.8214 54.1544 33.277 53.1508 33.0922C51.7996 32.8422 52.223 30.8192 52.1655 29.8455C49.3925 29.8585 49.9936 27.3747 49.9335 25.4324L49.9309 25.4376ZM18.197 35.8728C12.5282 36.6904 14.1538 47.1907 19.9951 45.2172C24.7701 43.6029 23.3771 35.1282 18.197 35.8728ZM47.563 35.8728C42.5789 36.5914 43.1382 45.6442 48.3052 45.4749C53.9924 45.2901 53.5088 35.0163 47.563 35.8728ZM28.0188 53.9991C28.0188 51.9865 25.3581 49.6902 23.4816 49.2814C21.8377 48.9221 15.5599 48.9377 13.9421 49.3335C11.6056 49.9037 9.48597 52.3224 9.48597 54.7828V59.9249H28.0188V53.9991ZM57.5154 59.9223V54.65C57.5154 51.6116 54.5673 49.3231 51.7133 49.1122C49.6538 48.9612 44.5495 48.8961 42.7331 49.5365C41.1859 50.0807 38.9853 52.3068 38.9853 53.9991V59.9223H57.518H57.5154Z" fill="#DE133D"/>
<path d="M4.36077 20.8995C6.94036 21.0531 10.0139 20.5793 12.536 20.8839C14.1172 21.0739 14.0989 22.7637 12.9359 22.9433L4.07067 22.9485C2.94684 22.4851 3.20819 21.1052 4.35816 20.8995H4.36077Z" fill="#DE133D"/>
<path d="M7.82897 25.9036C7.20956 25.3361 7.54671 24.2608 8.38305 24.1306C9.03383 24.029 12.455 24.0186 13.0456 24.1514C14.044 24.3727 14.0048 26.0104 12.8052 26.1978C12.0211 26.3202 9.45722 26.302 8.63395 26.2083C8.3935 26.1822 8.00408 26.0625 7.82897 25.9036Z" fill="#DE133D"/>
<path d="M54.2171 20.8995C55.469 20.6756 61.211 20.6964 62.5283 20.8813C63.7671 21.0557 64.1016 22.4278 62.9281 22.9485L54.0629 22.9433C52.9103 22.7663 52.9731 21.1208 54.2171 20.8995Z" fill="#DE133D"/>
<path d="M59.1698 25.9036C58.9947 26.0625 58.6053 26.1822 58.3648 26.2083C57.5416 26.2994 54.9777 26.3202 54.1936 26.1978C52.994 26.0078 52.9548 24.3727 53.9531 24.1514C54.5438 24.0186 57.965 24.029 58.6157 24.1306C59.4521 24.2608 59.7892 25.3361 59.1698 25.9036Z" fill="#DE133D"/>
</svg>
