<svg width="71" height="72" viewBox="0 0 71 72" fill="none" xmlns="http://www.w3.org/2000/svg">
<path d="M51.9487 70.8472C51.8143 70.712 51.6183 70.1854 51.6295 69.9826C51.6883 68.8844 53.1976 69.0561 53.9004 68.8815C55.4713 68.4929 56.6501 67.0257 56.7369 65.4036C56.9413 61.523 51.9627 55.4205 49.4622 52.5988C48.8966 51.9595 47.3789 50.864 47.4377 50.0079C47.4853 49.2701 48.4122 48.8477 49.0506 49.2194C49.4034 49.425 51.0275 51.1823 51.4223 51.6159C52.9652 53.3112 54.3204 55.2009 55.6589 57.0595L57.2213 59.6334C57.927 50.9851 57.9242 42.2693 57.2213 33.6153L54.8188 37.4565C49.9802 44.3025 41.1346 52.0102 33.4399 55.3388C32.7062 55.6571 30.5557 56.5695 29.8809 56.547C29.1529 56.5244 26.8568 55.5078 26.0756 55.1586C18.3752 51.7004 9.59401 43.9843 4.7946 37.0341L2.6721 33.6153L2.24648 40.1487V53.2408L2.6721 59.6334L4.8786 56.1583C6.11626 54.5194 7.35671 52.8438 8.75398 51.3343C9.12359 50.9344 10.5153 49.4137 10.8457 49.2194C11.7921 48.6675 12.9122 49.7151 12.2457 50.7683C11.7557 51.5427 10.1568 52.9029 9.45401 53.7252C7.1019 56.4822 2.74211 62.1116 3.24333 65.8796C3.51494 67.9353 5.39943 68.8337 7.21951 69.0533C9.16839 69.2899 11.5149 69.3687 13.5058 69.4814C23.5414 70.0559 33.6947 70.0136 43.7303 69.6222C45.1556 69.5659 47.2641 69.1716 48.6222 69.3321C49.9802 69.4926 49.8234 71.2471 48.611 71.4358C46.4689 71.7709 43.6939 71.6273 41.479 71.7202C32.1322 72.106 22.7154 72.1201 13.363 71.5906C11.3217 71.4752 8.93598 71.3963 6.93669 71.1626C2.26609 70.6163 1.31964 68.0114 0.852022 63.7787C-0.245627 53.8407 -0.220426 42.6551 0.57201 32.6973C0.737217 30.6415 0.874423 26.8341 1.85727 25.1276C4.18417 21.0836 9.71722 22.3086 13.6206 21.7651C14.3318 21.5511 17.3952 17.6339 18.6272 16.9524C19.6633 16.3779 20.6769 17.524 19.8061 18.704C18.2128 20.8583 15.0039 22.8775 13.2958 25.0966L5.24822 33.6125L5.81664 34.7333L12.3185 27.7691C17.5716 22.4522 22.8778 17.1889 28.4137 12.1678C29.2677 11.5116 29.8977 12.6325 30.6006 13.0492C32.0958 13.9363 33.6779 13.8631 35.0836 12.8268C36.4892 11.7904 36.1252 10.3993 38.1245 11.9538C40.6782 13.9391 43.7863 17.1129 45.962 19.5432C46.5893 20.2416 48.1601 21.8665 48.555 22.5621C49.2662 23.8209 47.6701 24.3503 47.0905 25.1811C46.3345 26.2625 46.2197 27.8451 46.7293 29.042C47.1577 30.0529 48.4766 30.6612 47.8325 31.8327C41.1206 39.1405 34.1763 46.2372 26.9352 53.0184C26.826 53.2746 27.7416 53.5844 27.9236 53.5731C28.0468 53.5675 29.4357 52.32 29.6681 52.1059C36.408 45.8908 43.3607 38.6449 49.4594 31.782C50.2238 30.9231 52.3351 28.7801 52.7719 27.9409C52.9203 27.6592 53.0408 27.2678 53.0184 26.944C52.954 26.0175 50.7671 23.421 50.0838 22.5705C46.1945 17.7353 41.0898 12.624 36.1644 8.85886C34.9267 7.91265 33.3475 6.18637 31.7766 7.52966L22.7266 15.8682C21.7886 16.3863 20.7805 15.4852 21.2089 14.4826C21.2901 14.2911 22.987 12.6662 23.3006 12.3677C25.3475 10.4049 28.3773 7.37758 30.5782 5.76113C33.8571 3.34772 37.0716 6.81436 39.5274 8.85886C43.0163 11.7651 46.4381 15.1698 49.465 18.5576C50.0166 19.1771 51.9599 21.8355 52.3939 22.0833C52.7859 22.3086 54.0236 22.2551 54.6816 22.4551C59.1366 23.8096 59.0134 28.5576 59.3242 32.4128C60.1475 42.5875 60.3407 55.3388 58.8874 65.4459C58.5458 67.8142 57.5154 69.6954 55.2221 70.6219C54.4604 70.9289 52.5871 71.4808 51.9487 70.8387V70.8472ZM17.9412 47.6565C19.4897 48.69 20.9541 49.8643 22.5474 50.8331C23.057 51.1428 24.5719 52.1961 25.0507 51.9708L45.4132 31.3624C45.5588 31.0414 44.758 29.8868 44.5984 29.3658C43.8787 27.02 44.4752 24.7333 46.1721 22.9986C43.3635 19.7826 40.3758 16.7158 37.136 13.9363C34.8735 16.0484 31.5526 16.468 29.0409 14.5305C24.1855 18.8392 19.5765 23.4604 14.9787 28.0563L7.25031 36.3301C7.0459 36.8257 8.07075 37.8902 8.41236 38.3239C9.60521 39.8361 10.9717 41.1935 12.3269 42.5565L12.5145 42.6072C15.0851 40.1938 19.246 42.4917 18.5292 45.9724C18.3976 46.6145 17.9496 47.051 17.9412 47.6593V47.6565ZM11.3469 24.0518C8.54677 24.2799 3.58494 23.6491 3.22933 27.6311C3.09772 29.1011 3.57934 30.3092 4.07497 31.6441L11.3469 24.0518ZM30.7882 54.0068C33.3391 53.2549 35.8172 51.8497 38.0489 50.4106C43.9095 46.6314 50.4982 40.5317 54.2056 34.5869C56.0173 31.6835 58.7166 26.53 54.2868 24.615C55.7485 26.744 55.1409 28.4196 53.6596 30.2416C50.6634 33.9223 46.8329 37.8339 43.5203 41.2836C39.3677 45.612 34.9939 49.7348 30.7882 54.0068ZM14.5222 43.7731C14.2982 43.8237 13.867 44.0181 14.0658 44.3081L16.1687 46.1301C17.0899 44.8911 15.9783 43.4379 14.5194 43.7731H14.5222Z" fill="#DE133D"/>
<path d="M67.6826 18.4618C71.2976 18.321 72.2972 24.1109 68.9735 25.2458C68.0494 25.5612 64.8377 25.8766 63.9024 25.7049C61.4495 25.2599 60.7271 21.4216 62.83 19.9093C63.4712 19.4475 66.8706 18.4928 67.6826 18.459V18.4618ZM68.6627 23.0352C69.1415 22.5508 68.8391 20.8245 68.0606 20.6781C67.5398 20.5795 64.8293 21.2554 64.2805 21.5089C63.3032 21.9594 63.6084 23.4661 64.4345 23.6238C64.9525 23.7223 68.377 23.3252 68.6655 23.0324L68.6627 23.0352Z" fill="#DE133D"/>
<path d="M50.8959 0.0387884C53.1612 -0.2738 55.3397 1.3342 55.1296 3.73353C55.0652 4.4798 53.766 7.6254 53.3068 8.22805C51.5035 10.5936 47.4517 9.22777 47.4349 6.25959C47.4321 5.60625 48.457 2.03823 48.8042 1.44685C49.2158 0.748449 50.1034 0.145801 50.8987 0.0359723L50.8959 0.0387884ZM51.1731 2.13398C51.0359 2.16214 50.9015 2.23536 50.7951 2.32547C50.4982 2.57892 49.6302 5.67102 49.605 6.16947C49.5518 7.16919 50.9603 7.75213 51.6099 6.94109C51.8507 6.64258 53.0128 3.82083 53.0352 3.44066C53.0856 2.49163 51.9655 1.97064 51.1759 2.13398H51.1731Z" fill="#DE133D"/>
<path d="M61.5223 7.06781C64.1012 6.63131 66.4366 9.66145 65.2717 12.103C64.8181 13.0521 61.6231 15.4908 60.5871 15.6908C58.4114 16.1075 56.3673 14.1165 56.6977 11.9228C56.9021 10.5739 60.1615 7.30155 61.5223 7.07063V7.06781ZM61.8023 9.16582C61.4775 9.23341 59.0162 11.6468 58.8678 11.9904C58.473 12.8972 59.4418 13.9279 60.4051 13.5364C60.6767 13.4266 63.3508 11.3173 63.446 11.1089C63.8268 10.2726 62.6956 8.97995 61.8023 9.16582Z" fill="#DE133D"/>
<path d="M26.4256 22.9676C35.12 22.2439 39.743 31.4779 35.568 38.7716C31.6142 45.6796 21.0409 47.5833 16.6867 40.1262C12.3325 32.6691 18.406 23.635 26.4228 22.9676H26.4256ZM26.7028 25.0769C19.106 25.5162 13.8698 35.7331 20.1561 40.9992C24.9975 45.0572 32.2946 41.8102 34.3919 36.3216C36.4892 30.833 32.9751 24.7136 26.7028 25.0769Z" fill="#DE133D"/>
<path d="M37.0492 19.025C41.241 18.5097 42.6719 24.6347 38.7209 26.0484C33.6583 27.862 31.8074 19.6671 37.0492 19.025ZM37.1892 21.123C35.4308 21.4328 35.6604 24.2602 37.5617 24.1813C39.463 24.1025 39.2585 20.7598 37.1892 21.123Z" fill="#DE133D"/>
<path d="M24.7343 29.1546C26.0251 30.4528 23.2194 31.2751 23.0962 32.5762C22.9142 34.4827 26.3976 32.1369 27.0556 31.9031C29.7913 30.9259 31.7066 32.8775 31.337 35.6458C31.2866 36.0147 30.8022 36.9665 30.8134 37.0397C30.8834 37.4959 31.6506 37.7015 31.1914 38.5914C30.5921 39.7516 29.4385 38.69 29.2453 38.7407C28.5173 38.9293 26.5432 40.8302 25.8851 39.1828C25.3447 37.8339 27.1564 37.6762 27.9824 37.0538C28.8085 36.4314 29.4777 35.5134 29.2229 34.4236C28.8505 32.824 26.2128 34.7784 25.3335 35.0938C24.1799 35.5106 23.4994 35.7922 22.357 35.1388C21.1081 34.4236 20.8309 33.0718 21.1473 31.7285C21.2117 31.461 21.5197 30.9992 21.5113 30.8781C21.4889 30.5063 20.6433 30.1374 21.2201 29.2672C21.8838 28.2647 22.6594 29.1997 23.0514 29.2363C23.3174 29.2616 23.9755 28.3886 24.7371 29.1574L24.7343 29.1546Z" fill="#DE133D"/>
</svg>
