<svg width="80" height="89" viewBox="0 0 80 89" fill="none" xmlns="http://www.w3.org/2000/svg">
<path d="M79.4249 88.6167C74.1399 87.218 69.2615 86.0588 64.4902 84.5906C63.3202 84.2197 62.368 82.921 61.4744 81.9122C49.3392 68.2304 37.254 54.512 25.1187 40.8302C17.5003 32.2591 10.1534 23.4634 2.05422 15.3216C-0.593673 12.655 -0.72519 10.1659 1.91246 7.46399C3.82557 5.52373 5.97186 3.79652 8.08924 2.06488C11.7387 -0.86683 13.9205 -0.725723 16.7897 2.80263C35.2402 25.4477 55.3876 46.5927 74.4355 68.7229C76.8055 71.4653 78.3028 74.2075 78.2929 77.7987C78.2855 81.1833 79.7645 84.4254 79.4294 88.5879L79.4249 88.6167ZM10.2477 20.7574C28.0742 40.9417 45.7086 60.9339 63.3475 80.8973C67.1883 77.8765 70.0735 74.5323 73.349 71.0556C55.8936 50.9576 38.5161 30.9307 20.8121 10.5286C19.4174 13.036 16.7666 13.7251 16.3711 16.3703C16.3218 16.6881 16.3579 17.1223 15.6966 17.0952C12.96 17.0025 12.0334 19.4482 10.2355 20.7408L10.2477 20.7574ZM66.0496 82.8329C67.6425 83.8155 69.5744 83.7558 71.4791 84.2537C72.9505 82.586 74.1722 80.7176 76.3838 80.0944C76.0521 77.7521 76.6038 75.5299 75.4767 73.6427C75.0144 73.5721 74.7389 73.4413 74.4943 73.4926C70.7198 74.084 70.3997 78.7219 67.028 79.8627C66.3264 80.0956 65.8195 80.9792 65.8707 81.8889C65.8882 82.1577 65.9846 82.3942 66.0952 82.8251L66.0496 82.8329ZM14.3355 3.65484C13.221 1.39993 11.6268 1.57037 10.1949 2.69704C7.74824 4.6445 5.38702 6.7085 3.15235 8.91012C1.88034 10.1499 1.52279 11.6921 3.50624 13.2074C7.08817 10.0436 10.6155 6.94542 14.3355 3.65484ZM17.7481 6.34955C14.1434 6.22764 8.46943 10.3877 4.98579 15.0154C5.53543 16.43 6.41574 16.4758 7.49723 15.6061C10.8797 12.8701 14.2133 10.0676 17.7314 6.36179L17.7481 6.34955ZM19.3741 8.35736C15.3255 10.4297 8.75998 16.5235 8.13171 18.5713C11.2543 17.5107 17.6614 11.8659 19.3741 8.35736Z" fill="#414141"/>
<path d="M19.0416 26.1371C18.3856 25.3124 18.0015 24.9285 17.7175 24.4711C16.7067 22.8826 16.234 21.258 17.6388 19.6392C18.8632 18.2295 20.1371 18.2171 22.2862 19.7135C24.2753 21.0966 26.4147 22.3697 27.3577 24.7758C27.9241 26.1782 28.4525 27.6339 27.0194 28.8639C25.8243 29.8937 24.4617 29.7151 23.2164 29.0665C21.5479 28.1907 19.8293 27.3515 19.0294 26.1205L19.0416 26.1371Z" fill="#414141"/>
<path d="M67.6506 75.1823C62.9587 70.5328 58.2501 65.8955 54.4605 60.4819C53.2854 58.8091 52.1225 57.153 50.7637 55.6148C44.4642 48.4576 38.1601 41.3292 32.082 33.9841C44.608 47.1489 56.1983 61.1022 67.6506 75.1823Z" fill="#414141"/>
<path d="M28.4671 36.788C29.7455 36.7467 30.1605 37.3128 30.6012 37.8089C32.9191 40.4103 35.208 43.0073 37.1164 45.9601C33.8136 43.4152 31.1084 40.3554 28.4671 36.788Z" fill="#414141"/>
<path d="M39.8812 50.2561C40.8353 50.0174 41.3435 50.7456 41.9376 51.206C42.3474 51.5199 42.6147 51.9895 42.3216 52.6396C41.4852 53.0737 41.2517 52.1953 40.8342 51.8358C40.38 51.4264 39.8392 51.0037 39.8812 50.2561Z" fill="#414141"/>
</svg>
