<svg width="73" height="71" viewBox="0 0 73 71" fill="none" xmlns="http://www.w3.org/2000/svg">
<path d="M25.3197 2.95255C24.7646 -0.91589 29.8451 -0.952706 29.2816 2.95255H34.7274C35.1777 2.20492 34.6991 1.56207 35.3618 0.75496C36.874 -1.08298 39.4936 0.760624 38.8989 2.95255H44.3447C44.7865 2.1766 44.3249 1.60171 44.9819 0.757792C46.4432 -1.11696 49.0967 0.820095 48.5162 2.95255H52.9708C53.9592 2.95255 55.7037 4.95474 55.7178 6.00823L55.7433 28.8507C67.9009 30.666 74.9921 42.5319 71.1067 54.242C66.4339 68.3196 47.6666 71.582 38.3325 60.0843C34.3621 55.1935 32.9801 49.0397 34.5094 42.883H12.2333C12.0803 42.883 11.1599 42.6763 10.9504 42.6083C9.84592 42.2572 8.97651 41.0536 8.5319 40.0454C6.01996 39.8019 1.58795 41.0083 0.299418 38.1225C-0.184845 37.0351 0.0332147 36.4404 0.163484 35.3331C1.33025 25.5005 3.4712 15.7416 4.73142 5.9176C4.81355 4.84713 6.91202 2.94972 7.8494 2.94972H15.6996C15.0765 0.706817 17.8632 -1.11979 19.299 0.834254C19.8852 1.63286 19.4292 2.24173 19.8739 2.94972H25.3197V2.95255ZM17.2571 1.67818V5.43051C17.2571 5.71087 18.1067 5.71087 18.1067 5.43051V1.89057C18.1067 1.85376 17.8292 1.58472 17.7301 1.56773L17.2571 1.67818ZM26.8744 1.67818V5.43051C26.8744 5.71087 27.724 5.71087 27.724 5.43051V1.89057C27.724 1.85376 27.4465 1.58472 27.3474 1.56773L26.8744 1.67818ZM36.4946 1.67818V5.43051C36.4946 5.71087 37.3442 5.71087 37.3442 5.43051V1.89057C37.3442 1.85376 37.0666 1.58472 36.9675 1.56773L36.4946 1.67818ZM46.1119 1.67818V5.43051C46.1119 5.71087 46.9615 5.71087 46.9615 5.43051V1.89057C46.9615 1.85376 46.6839 1.58472 46.5848 1.56773L46.1119 1.67818ZM3.04075 38.4935C4.56717 38.7484 6.74494 38.3038 8.34499 38.4935V6.28009C8.34499 5.89778 9.12661 4.43933 9.05297 4.36853C6.272 4.54694 6.20686 6.52081 5.82455 8.70991C4.17636 18.1346 3.00676 27.6925 1.5653 37.1398C1.65309 37.743 2.48285 38.4001 3.04358 38.4935H3.04075ZM15.6996 4.36853H11.8085C11.1543 4.36853 9.89973 5.61742 9.89973 6.28009V9.46604H54.1744V5.9969C54.1744 5.90344 53.7355 5.26909 53.6165 5.14165C52.413 3.84462 50.1077 4.54411 48.5162 4.36853C48.9268 6.44718 46.5593 8.28511 44.9791 6.52647C44.2966 5.76751 44.8063 5.08218 44.3447 4.36853H38.8989C39.2869 8.12086 34.4414 8.12369 34.937 4.36853H29.2788C29.7432 8.12936 24.8298 8.1067 25.3169 4.36853H19.6586C20.1231 8.12936 15.2096 8.1067 15.6967 4.36853H15.6996ZM54.1744 11.0236H9.89973V39.1307C9.89973 40.1474 11.2109 41.3141 12.2333 41.3255L34.9851 41.3311C37.8341 33.5121 45.7947 28.1399 54.1744 28.7233V11.0236ZM52.1666 30.1789C40.8359 30.7085 33.2746 41.7899 36.1406 52.6504C40.8246 70.3869 67.0881 69.4835 70.4043 50.9852C72.4065 39.8189 63.4377 29.6522 52.1666 30.1789Z" fill="#DE133D"/>
<path d="M23.3713 47.805L25.3905 48.6376C26.4043 48.2043 27.101 46.8789 28.3301 47.1593C28.786 47.2641 30.9638 49.4786 31.0629 49.9544C31.3064 51.1297 29.426 52.169 29.5846 52.9704C29.6129 53.112 30.2784 54.7348 30.3634 54.7886C31.2017 55.1142 32.8923 54.7999 33.3653 55.7146C33.5918 56.1536 33.6173 58.8071 33.4955 59.348C33.2322 60.5261 31.6887 60.2769 30.8052 60.4779C29.8508 60.696 29.9301 61.826 29.4543 62.6104C29.8536 63.511 31.1847 64.3889 30.9524 65.4367C30.893 65.7114 28.7973 67.9316 28.5113 68.0959C27.3134 68.7841 26.2684 67.1387 25.2772 66.6941L23.3288 67.5776C22.8559 68.7841 23.4506 70.5739 21.7203 70.7806C21.1709 70.8457 19.2706 70.857 18.7751 70.7466C17.4299 70.4464 17.934 68.3791 17.3987 67.4502L15.5127 66.6941C14.6461 67.2152 13.7993 68.4527 12.692 68.1978C12.2333 68.0931 9.9507 65.785 9.90539 65.3121C9.80627 64.3124 11.4771 63.0635 11.429 62.5169L10.721 60.6139C9.85725 60.2457 8.00232 60.5827 7.51806 59.6425C7.2915 59.2036 7.26601 56.5529 7.38779 56.0091C7.6993 54.6101 10.2027 55.2728 10.6757 54.6271C10.7352 54.545 11.446 52.8487 11.4318 52.7467C11.3185 51.9651 9.53157 51.124 9.93654 49.776C9.98752 49.6033 12.2927 47.2782 12.4541 47.2018C13.5926 46.6807 14.6064 48.2892 15.5693 48.6206L17.5092 47.8021C17.8377 47.0517 17.6111 45.1939 18.3333 44.7351C18.7241 44.4859 22.0233 44.4859 22.4283 44.7153C23.2609 45.1854 23.0003 47.012 23.3741 47.805H23.3713ZM21.4937 46.0038L19.3981 46.0152L18.8232 48.9094L15.575 50.3141C14.8811 50.433 13.72 48.9859 13.1961 48.8443C12.8336 48.748 11.7858 49.9403 11.5932 50.3141L13.1451 52.7212L11.8623 55.8194C11.5961 56.5274 8.9935 56.3263 8.90571 56.7114L8.92554 58.725C9.57122 58.9798 11.4233 58.8836 11.8453 59.3423C11.9925 59.5009 12.4315 60.9707 12.5872 61.3615C12.845 62.0015 13.3774 62.2847 13.0489 63.0947C12.8591 63.5591 11.4516 64.825 11.664 65.2498L13.0828 66.5298L15.4985 64.9723L18.7184 66.2353L19.4745 69.2258L21.4966 69.2117L22.0063 66.3939C22.1876 66.1588 23.9745 65.6094 24.4305 65.4225C24.9204 65.2186 25.0308 64.7853 25.7417 65.0487C26.2457 65.2328 27.3021 66.4109 27.6872 66.5157C28.0497 66.612 29.0975 65.4197 29.2901 65.0459L27.7382 62.6387C28.3074 61.8458 28.5651 60.2429 29.0211 59.5406C29.5535 58.7193 31.8813 59.079 31.9804 58.6485L31.9125 56.6095L29.2051 56.0629L27.9024 52.9761C27.7127 52.0217 28.8681 51.1325 29.3637 50.3849V50.1073L27.9449 48.7225C27.6447 48.6999 26.2146 50.2178 25.5378 50.2603C24.9799 50.2943 24.1756 49.7024 23.6262 49.4702C22.8814 49.1558 22.0941 49.3512 21.8506 48.4167C21.7571 48.0598 21.5872 46.0916 21.4994 46.0067L21.4937 46.0038Z" fill="#DE133D"/>
<path d="M20.1797 28.6752C19.5708 29.3152 17.2288 29.2415 16.3311 29.1538C15.5211 29.0745 14.8528 28.6525 14.7197 27.7916C14.6319 27.228 14.6404 24.5292 14.8188 24.0846C15.2861 22.9206 17.968 23.0877 19.0328 23.1925C19.8427 23.2718 20.511 23.6938 20.6441 24.5547C20.7772 25.4156 20.7857 28.0408 20.1797 28.6752ZM19.0951 24.7586H16.2659V27.5905H19.0951V24.7586Z" fill="#DE133D"/>
<path d="M39.4171 28.6752C38.8083 29.3123 36.4662 29.2415 35.5685 29.1537C34.8804 29.0858 34.0789 28.7006 33.9571 27.936C33.8694 27.3725 33.8807 24.5263 34.0563 24.0874C34.2318 23.6484 34.8265 23.2831 35.3051 23.2152C36.1661 23.0934 38.7941 23.0452 39.3832 23.6371C40.1251 24.3819 40.1365 27.9219 39.4171 28.6752ZM38.3325 24.7586H35.5034V27.5905H38.3325V24.7586Z" fill="#DE133D"/>
<path d="M29.797 28.6752C29.1881 29.3152 26.8461 29.2415 25.9484 29.1538C25.1384 29.0745 24.4701 28.6525 24.337 27.7916C24.2492 27.228 24.2577 24.5292 24.4361 24.0846C24.9034 22.9206 27.5853 23.0877 28.6501 23.1925C29.6243 23.286 30.185 23.8467 30.2756 24.8209C30.3606 25.7299 30.42 28.021 29.797 28.6752ZM28.7152 24.7586H25.8861V27.5905H28.7152V24.7586Z" fill="#DE133D"/>
<path d="M15.1813 20.1793C15.0879 20.0915 14.8075 19.6412 14.7735 19.5251C14.6319 19.0352 14.6291 16.4751 14.7169 15.9172C14.9689 14.32 17.6763 14.4389 18.8657 14.5805C19.585 14.6655 20.2109 14.9317 20.4941 15.6397C20.7772 16.3477 20.7999 19.3042 20.3015 19.9499C19.5595 20.9156 15.9856 20.9496 15.1785 20.1793H15.1813ZM19.0951 16.1211H16.2659V19.0947H19.0951V16.1211Z" fill="#DE133D"/>
<path d="M24.8014 20.1793C24.708 20.0915 24.4276 19.6412 24.3936 19.5251C24.252 19.0352 24.2492 16.4751 24.337 15.9172C24.5891 14.32 27.2964 14.4389 28.4858 14.5805C29.2051 14.6655 29.831 14.9317 30.1142 15.6397C30.3974 16.3477 30.42 19.3042 29.9216 19.9499C29.1796 20.9156 25.6057 20.9496 24.7986 20.1793H24.8014ZM28.7152 16.1211H25.8861V19.0947H28.7152V16.1211Z" fill="#DE133D"/>
<path d="M16.0875 31.728C16.6709 31.6204 18.5683 31.6119 19.1574 31.7053C19.9758 31.8328 20.5592 32.5238 20.6526 33.3252C20.7716 34.373 20.8905 36.9303 19.8569 37.4853C18.8232 38.0404 15.4928 38.0659 14.8698 36.8482C14.6319 36.3837 14.6234 33.5263 14.7424 32.9344C14.8613 32.3425 15.4843 31.8413 16.0875 31.7308V31.728ZM19.0951 33.2544H16.2659V36.228H19.0951V33.2544Z" fill="#DE133D"/>
<path d="M25.7048 31.728C26.2882 31.6204 28.1856 31.6119 28.7747 31.7053C29.5931 31.8328 30.1765 32.5238 30.2699 33.3252C30.3889 34.373 30.5078 36.9303 29.4742 37.4853C28.4405 38.0404 25.1101 38.0659 24.4871 36.8482C24.2492 36.3837 24.2407 33.5263 24.3597 32.9344C24.4786 32.3425 25.1016 31.8413 25.7048 31.7308V31.728ZM28.7152 33.2544H25.8861V36.228H28.7152V33.2544Z" fill="#DE133D"/>
<path d="M44.0389 15.0365C44.812 14.3058 48.2641 14.3427 49.0174 15.1243C49.6773 15.8039 49.6037 17.9506 49.513 18.8908C49.4224 19.831 48.8589 20.505 47.8677 20.6409C46.8765 20.7768 44.5798 20.8222 43.9313 20.0774C43.4272 19.4996 43.481 17.0132 43.5603 16.1863C43.5971 15.7841 43.7387 15.3225 44.0389 15.0393V15.0365ZM47.9526 16.1211H45.1943L44.9819 16.3335V18.8823L45.1943 19.0947H47.9526V16.1211Z" fill="#DE133D"/>
<path d="M34.4187 20.1793C34.2545 20.0207 33.9911 19.5336 33.9543 19.2986C33.8637 18.7577 33.875 16.1693 34.0109 15.6907C34.3961 14.3511 36.5824 14.4729 37.701 14.5579C38.9385 14.6513 39.7626 14.9572 39.8957 16.3279C39.9864 17.2709 40.0572 19.409 39.4001 20.0943C38.6355 20.8901 35.1919 20.9213 34.4187 20.1821V20.1793ZM38.3325 16.1211H35.5742L35.3618 16.3335V18.8823L35.5742 19.0947H38.3325V16.1211Z" fill="#DE133D"/>
<path d="M52.025 32.0197C63.1659 31.289 71.2709 41.7644 68.2181 52.4749C63.8597 67.7561 41.3032 67.2576 37.6953 51.5177C35.4977 41.9372 42.2009 32.6625 52.025 32.0168V32.0197ZM52.9963 33.5886C38.4345 33.6962 33.4842 52.6221 45.5568 60.073C55.4545 66.1815 68.1105 58.5012 67.3345 46.9101C66.8219 39.2412 60.6653 33.5319 52.9935 33.5886H52.9963Z" fill="#DE133D"/>
<path d="M19.2027 51.2713C28.871 49.9629 29.392 64.0915 20.4402 64.0915C12.2502 64.0915 12.0945 52.2341 19.2027 51.2713ZM20.4629 52.7071C13.9806 52.7156 14.023 62.2309 20.1514 62.5679C26.8036 62.9361 27.135 52.6957 20.4629 52.7071Z" fill="#DE133D"/>
<path d="M59.7987 37.5363L59.8978 38.485L54.9051 46.3862C54.9249 46.9242 55.3157 47.1706 55.3185 47.7653C55.3242 49.4107 53.7496 50.4075 52.2204 49.9856L48.165 54.9188C47.5278 55.5532 46.599 54.9018 46.8907 54.0749L50.9913 49.102C51.0366 48.1278 50.6543 47.4708 51.283 46.5731C51.8607 45.7518 52.6367 45.664 53.5797 45.6838L58.6942 37.5675C58.9802 37.2248 59.4673 37.3381 59.7958 37.5363H59.7987ZM53.5741 48.3685C54.1773 47.7653 53.2116 46.7543 52.6225 47.3434C51.94 48.0259 52.968 48.9746 53.5741 48.3685Z" fill="#DE133D"/>
<path d="M52.5121 35.9788C52.6735 35.8173 53.1436 35.7607 53.3673 35.8258C54.1291 36.0467 54.1773 38.7541 53.2229 38.8957C51.9655 39.0826 52.2091 36.2818 52.5121 35.9788Z" fill="#DE133D"/>
<path d="M41.1956 47.3037C41.5015 46.9979 43.7585 46.9101 44.0304 47.5954C44.5968 49.0312 41.2806 48.9831 41.0427 48.159C40.9775 47.9352 41.0342 47.4651 41.1956 47.3009V47.3037Z" fill="#DE133D"/>
<path d="M64.7149 47.131C64.8027 47.131 65.1652 47.6351 65.1794 47.7908C65.3125 49.2209 60.7304 49.051 62.4494 47.131H64.7149Z" fill="#DE133D"/>
<path d="M52.3365 57.2552C52.4299 56.9182 53.053 56.8304 53.3702 56.9267C54.2084 57.1844 54.1489 60.0928 52.9963 59.9852C52.8406 59.971 52.3365 59.6085 52.3365 59.5179C52.3365 58.9968 52.2317 57.629 52.3365 57.2524V57.2552Z" fill="#DE133D"/>
</svg>
